<svg width="538" height="585" viewBox="0 0 538 585" fill="currentColor" xmlns="http://www.w3.org/2000/svg">
<path id="mauritius-outline" pathLength="1" fill="none" d="M357.402 5.39211C357.307 5.42785 356.673 5.59224 356.193 5.67732C355.852 5.73767 355.479 5.77782 355.09 5.62821C354.452 5.38223 354.328 4.80511 354.081 4.59067C353.778 4.32864 353.308 4.38674 352.621 4.29215C352.228 4.23804 351.813 4.26936 351.414 4.28936C351.082 4.30604 350.673 4.53748 350.227 4.75609C349.901 4.91598 349.651 5.11607 349.38 5.50305C349.265 5.66718 349.143 5.77509 348.97 5.83582C348.522 5.99338 347.994 5.93646 347.575 5.98699C347.238 6.02763 346.864 6.33577 346.598 6.63644C346.262 7.0159 346.254 7.4705 346.041 7.81919C345.848 8.13361 345.515 8.28447 345.082 8.39314C344.626 8.50778 344.29 8.4142 343.972 8.43041C343.811 8.43863 343.66 8.50211 343.517 8.52433C343.193 8.57432 342.598 8.05394 342.197 7.73281C341.95 7.53445 341.67 7.36885 341.249 7.14507C340.804 6.90845 340.457 6.85143 340.153 6.91727C340.074 6.93429 340.02 7.00597 339.978 7.0782C339.89 7.23072 339.9 7.43687 339.934 7.64175C340.008 8.08148 340.358 8.26716 340.832 8.53507C340.945 8.59893 341.016 8.64821 341.06 8.71332C341.242 8.98118 341.132 9.4429 341.231 9.89171C341.322 10.3037 341.295 10.9186 341.159 11.3686C340.994 11.9142 340.823 12.4099 340.613 12.8526C340.537 13.011 340.406 13.1262 340.273 13.2359C339.983 13.4759 339.465 13.1791 339.151 13.0717C339.008 13.0227 338.927 12.8832 338.845 12.78C338.669 12.5591 338.177 13.005 337.886 13.2417C337.642 13.4393 337.475 13.9374 337.275 14.315C337.175 14.5047 337.225 14.7228 337.19 14.8522C337.103 15.1681 336.548 14.7817 336.268 14.6065C335.964 14.4157 335.66 14.0997 335.38 13.875C335.114 13.6621 335.008 13.2356 334.747 12.986C334.625 12.8698 334.445 12.7386 334.224 12.6182C333.867 12.4232 333.515 12.6567 333.177 12.8075C332.856 12.9505 332.473 13.2934 332.242 13.6917C331.988 14.1298 332.104 14.7216 332.078 15.1413C332.072 15.2355 332.149 15.2891 332.213 15.3277C332.49 15.4938 333.126 15.2726 333.892 15.1856C334.008 15.1724 334.002 15.3034 333.982 15.3978C333.894 15.8009 333.799 16.1229 333.761 16.3454C333.698 16.7093 333.063 16.8111 332.562 17.1552C332.252 17.3681 331.97 17.7339 331.652 17.906C331.576 17.9349 331.497 17.9616 331.423 17.9948C331.35 18.0279 331.283 18.0667 331.104 17.9472M331.12 18.0057C331.053 17.9477 330.881 17.8478 330.752 17.8427C330.487 17.8323 330.437 18.2729 330.367 18.5596C330.293 18.8642 330.129 19.0966 329.953 19.3102C329.751 19.5544 329.559 19.8547 329.447 20.1108C329.237 20.5899 329.339 21.3833 329.337 21.851C329.322 21.9635 329.302 22.0393 329.276 22.1086C329.251 22.1778 329.22 22.2383 329.118 22.3857M329.165 22.6508C329.1 22.7414 328.918 23.0118 328.748 23.2808C328.482 23.702 328.038 24.0255 327.708 24.2593C327.473 24.4261 327.29 24.6904 327.112 24.9758C326.938 25.2553 326.771 25.4917 326.585 25.7005C326.398 25.9096 326.265 26.1557 326.17 26.4434C326.069 26.7478 326.028 27.1564 326.012 27.5406C325.986 28.1214 326.089 28.4693 326.261 28.7813C326.41 29.0532 326.694 29.2357 327.001 29.4769C327.326 29.7331 328.302 29.9814 328.847 30.1355C329.127 30.2146 329.596 30.4794 330.093 30.6784C330.607 30.8845 331.215 30.9857 331.62 31.1993C332.093 31.4493 332.331 31.8265 332.405 31.9505C332.62 32.3094 331.939 32.9394 331.676 33.2696C331.496 33.4964 331.423 33.8095 331.252 34.0257C331.039 34.2946 330.487 34.0612 330.157 34.1202C329.815 34.1816 329.539 34.583 329.255 34.753C328.97 34.924 328.641 35.0049 328.329 35.1885C327.998 35.3836 327.576 35.3892 327.246 35.4587C326.744 35.5645 326.247 35.3307 325.935 35.158C325.489 34.9111 325.244 34.5789 324.885 34.4132C324.501 34.2362 323.791 34.0013 323.257 33.8613L323.214 33.8499C322.855 33.7559 322.499 33.6628 322.172 33.5225C321.85 33.3846 321.293 33.2689 320.696 33.2619L320.61 33.2608C319.455 33.247 319.125 33.2431 318.71 33.3995C318.296 33.5553 317.97 33.87 317.729 34.0483C317.507 34.2118 317.073 33.8578 316.79 33.6584C316.561 33.4966 316.511 33.1499 316.405 32.8422C316.285 32.4909 316.031 32.0474 315.919 31.6415C315.825 31.2985 315.681 30.9899 315.534 30.6753L315.52 30.6437C315.331 30.2392 315.211 29.4811 315.216 28.8988C315.219 28.3973 315.758 27.7498 316.057 27.2021C316.415 26.547 317.033 26.3203 318.19 25.8768C318.907 25.602 319.256 25.0354 319.529 24.5551C319.697 24.2591 319.717 23.8592 319.689 23.5167C319.664 23.2107 319.668 22.8901 319.632 22.5802C319.597 22.2801 319.486 21.7131 319.32 21.2671C319.202 20.9527 318.79 20.8061 318.523 20.6577C318.268 20.5155 317.939 20.4511 317.578 20.5052C317.233 20.557 316.84 20.6995 316.522 20.823C316.239 20.933 315.959 20.9493 315.545 20.983C314.961 21.0304 314.465 20.8255 314.231 20.6538C313.954 20.4506 313.659 20.3407 313.299 20.293C312.907 20.241 312.501 20.1734 312.042 20.1531C311.658 20.1362 311.403 20.343 311.117 20.4942C310.869 20.6262 310.447 20.4857 310.127 20.359C309.86 20.2529 309.175 20.0838 308.676 20.0644C308.538 20.0591 308.399 20.0716 308.265 20.0226C307.947 19.9063 307.837 19.5066 307.638 19.1482C307.496 18.8942 307.113 18.9038 306.866 18.7456C306.631 18.5956 306.502 18.2573 306.195 17.9605C305.897 17.6712 305.488 17.2769 305.204 16.9362C305.157 16.8796 305.081 16.8689 305.003 16.878C304.641 16.9198 304.389 17.1996 304.161 17.3666C304.108 17.4058 304.034 17.3982 303.951 17.3729C303.765 17.3155 303.631 17.1628 303.553 17.0046C303.375 16.6443 303.4 16.1848 303.366 15.8522C303.331 15.5001 303.337 15.1672 303.131 14.739C303.085 14.6442 302.997 14.6292 302.909 14.6257C302.716 14.6181 302.537 14.6632 302.404 14.691C302.125 14.7493 302.017 15.1753 301.614 15.3775C301.452 15.4589 300.991 15.4008 300.448 15.3888C300.27 15.3849 300.295 15.4945 300.321 15.5755C300.418 15.878 300.375 16.1743 300.281 16.4532C300.183 16.7415 300.26 17.0783 300.373 17.3968C300.483 17.7081 300.788 18.4982 301.051 19.0362C301.174 19.2875 300.929 19.58 300.623 19.9866C300.402 20.2814 300.189 20.4949 299.966 20.7614C299.763 21.0038 300.063 21.4929 300.344 22.0383C300.519 22.3764 300.817 22.6176 301.115 22.9774C301.533 23.4816 301.895 23.7264 302.242 24.1423C302.458 24.4012 302.487 24.7352 302.571 25.0548C302.677 25.4606 302.861 25.7157 302.927 25.9973C302.996 26.2888 303.455 26.7122 303.687 27.0951C303.929 27.4936 303.78 27.8847 303.891 28.6567C304.033 29.6579 304.195 30.5995 304.316 31.3404C304.378 31.7239 304.365 32.1812 304.401 32.5358C304.457 33.0975 304.312 33.7394 304.055 34.21C303.886 34.5208 303.685 34.9234 303.547 35.2797C303.374 35.7241 303.157 36.0406 302.899 36.2877C302.664 36.513 302.229 36.9533 301.914 37.3867C301.575 37.853 300.974 38.3498 300.682 38.5592C300.357 38.7925 299.96 38.9997 299.652 39.167C299.377 39.3162 298.98 39.6494 298.679 39.9168C298.444 40.1257 298.063 40.4698 297.489 41.0759C297.081 41.5077 296.759 41.7124 296.552 41.9552C296.351 42.2647 296.165 42.6868 296.057 42.9444C296.023 43.0056 295.981 43.0624 295.864 43.252M295.844 43.2423C295.794 43.317 295.584 43.5135 295.31 43.5561C294.906 43.6187 294.642 43.6068 294.342 43.7992C294.081 43.9675 293.826 44.1147 293.238 44.5657C292.909 44.8188 292.12 46.2503 291.468 47.1025C291.246 47.3936 291.013 47.6113 290.846 47.888C290.636 48.2344 290.645 48.558 290.556 48.9662C290.48 49.3104 290.437 49.6437 290.392 49.9644C290.351 50.2554 290.286 50.5795 290.197 50.9355C290.088 51.3714 290.035 51.6918 289.95 52.0358C289.817 52.5732 289.588 53.0363 289.309 53.7308C288.977 54.5596 288.453 55.0882 288.333 55.324C288.159 55.6645 287.798 56.1017 287.558 56.4464C287.361 56.7308 287.204 57.0702 286.988 57.3523C286.775 57.6314 286.526 57.8043 286.342 58.0706C286.183 58.3011 285.945 58.4845 285.638 58.7803C285.373 59.0356 284.867 59.1252 284.516 59.2568C284.166 59.388 283.709 59.4971 283.11 59.7329C282.494 59.975 282.143 60.1266 281.82 60.2744C281.492 60.4243 281.178 60.8633 280.957 61.1632C280.78 61.4033 280.487 61.5528 280.255 61.7231C279.997 61.9132 279.602 62.027 279.189 62.2552C278.68 62.536 278.244 62.7533 277.829 62.9447C277.545 63.0758 277.222 63.0911 276.887 63.1303C276.523 63.1729 275.835 63.1473 275.369 63.2091C274.844 63.2787 273.899 63.3611 272.972 63.3291C272.723 63.3205 272.128 63.4419 271.322 63.5882C270.494 63.7388 269.616 64.0633 269.338 64.0108C268.824 63.9137 267.993 63.8736 267.595 64.0313C267.257 64.1651 267.224 64.5982 267.046 64.7928C266.836 65.0224 266.682 65.2968 266.499 65.5073C266.317 65.7178 266.293 66.0403 266.097 66.3519C265.945 66.5934 265.892 66.876 265.728 67.1425C265.571 67.3977 265.346 67.6309 265.022 68.1321C264.808 68.4628 264.368 69.4618 264.04 70.1079C263.903 70.3784 263.806 70.7157 263.729 71.0179C263.655 71.311 263.614 71.5813 263.494 72.0002C263.379 72.3993 263.329 72.7015 263.35 73.0739C263.27 73.6994 263.247 74.1557 263.267 74.5596C263.304 74.6319 263.389 74.6526 263.632 74.5999M263.667 74.6317C263.793 74.73 264.12 75.0614 264.298 75.3296C264.375 75.4454 264.304 75.5807 264.22 75.6462C263.825 75.9512 263.137 75.4311 262.61 75.3505C261.95 75.2493 261.202 75.5622 260.791 75.9389C259.896 76.7579 260.561 78.868 260.852 79.3413C261.02 79.6145 261.03 79.938 261.011 80.221C260.97 80.8303 260.553 81.2911 260.377 81.8837C260.161 82.614 259.97 83.1111 259.828 83.6185C259.678 84.1559 259.541 84.662 259.359 85.3308C259.275 85.6428 259.233 85.9223 259.131 86.16C258.924 86.6469 258.028 86.9366 257.373 87.258C256.884 87.498 256.646 88.1626 256.465 88.6959C256.295 89.1956 255.976 89.6476 255.608 90.0394C255.239 90.4328 254.7 90.5619 254.206 90.8992C253.395 91.4537 253.414 92.3025 253.245 92.9991C253.099 93.5996 252.632 94.0727 252.239 94.6751C251.774 95.3895 251.55 95.9318 251.251 96.6051C250.959 97.2628 251.041 97.8744 251.075 98.5736C251.112 99.3531 250.814 99.8966 250.729 100.445C250.642 101.004 250.401 101.549 250.567 102.065C250.78 102.729 251.399 102.983 251.925 103.159C252.508 103.355 253.788 103.512 254.541 103.876C254.787 103.996 254.726 104.391 254.771 104.632C254.862 105.128 254.322 105.557 254.162 106.426C254.045 107.057 253.622 107.457 253.406 107.907C253.186 108.363 252.385 108.374 251.803 108.545C251.011 108.777 250.007 108.694 249.507 108.854C249.253 108.935 248.981 108.968 248.749 109.08C248.515 109.193 248.493 109.53 248.383 109.74C248.047 110.383 246.985 109.757 246.716 109.798C246.204 109.877 246.179 110.665 246.085 111.278C245.995 111.869 245.91 112.437 245.848 113.131C245.787 113.82 246.333 114.243 246.456 114.782C246.584 115.347 246.615 115.939 246.729 116.588C246.824 117.136 247.264 117.52 247.64 117.958C247.991 118.366 248.047 118.988 248.1 119.765C248.14 120.353 248.582 120.776 249.202 121.183C249.707 121.516 250.258 121.734 250.777 121.948C251.046 122.059 251.186 122.383 251.363 122.612C251.7 123.049 251.5 123.561 251.575 123.82C251.733 124.362 252.442 124.23 252.658 124.333C253.101 124.543 253.077 125.248 253.363 125.721C253.677 126.242 253.771 126.841 254.005 127.368C254.247 127.912 254.59 128.504 255.08 129.159C255.481 129.694 256.096 129.815 256.567 130.089C257.242 130.481 258.35 130.414 258.807 130.704C259.263 130.993 259.496 131.5 259.638 131.992C259.708 132.237 259.443 132.47 259.206 132.656C258.935 132.869 258.53 132.836 258.217 132.782C257.688 132.69 257.246 132.322 256.819 131.911C256.392 131.5 255.976 131.128 255.57 130.735C255.177 130.354 254.718 130.094 254.324 129.737C253.937 129.386 253.53 129.057 253.096 128.711C252.684 128.383 251.535 128.236 250.678 128.22C250.139 128.209 249.671 128.545 249.178 128.854C248.572 129.235 247.796 129.473 247.136 129.644C246.606 129.781 246.038 129.972 245.467 130.146C244.886 130.323 244.313 130.209 243.789 130.348C243.144 130.519 242.471 130.792 241.939 131.01C241.414 131.225 240.898 131.523 240.39 131.784C239.892 132.039 239.323 132.23 238.747 132.462C238.078 132.733 237.586 133.008 237.247 133.405C236.908 133.802 236.622 134.251 236.218 134.762C235.85 135.229 235.521 135.713 235.247 136.211C234.991 136.677 234.574 137.027 234.231 137.45C233.806 137.974 233.672 138.632 233.461 139.16C233.166 139.899 232.838 140.671 232.55 141.201C232.22 141.808 231.944 142.312 231.586 142.815C231.205 143.349 231.065 143.934 230.944 144.467C230.817 145.03 230.699 145.539 230.555 146.157C230.316 147.184 230.385 147.827 230.267 149.269C230.208 149.993 230.006 150.72 230.042 151.399C230.087 152.231 229.834 152.851 229.683 153.502C229.498 154.303 229.992 155.437 230.111 156.148C230.226 156.843 230.288 157.372 230.631 157.759C231.012 158.189 230.63 158.997 230.848 159.513C230.903 159.642 230.971 159.752 231.058 159.833C231.431 160.181 232.061 160.185 232.547 160.515C232.932 160.775 233.185 161.115 233.45 161.226C233.978 161.445 234.494 160.934 235.022 160.729C235.156 160.677 235.295 160.657 235.417 160.685C235.899 160.792 235.989 161.481 236.489 161.77C236.967 162.046 237.28 162.439 237.529 162.914C237.786 163.403 238.315 163.791 238.496 164.321C238.536 164.437 238.381 164.541 238.264 164.601C237.739 164.871 236.544 164.596 235.744 164.472C235.191 164.387 234.724 164.061 234.306 163.75C233.754 163.34 232.77 163.371 232.255 163.466C231.979 163.516 231.704 163.462 231.453 163.379C230.969 163.219 230.693 162.699 230.273 162.255C229.869 161.829 229.4 161.328 229.109 160.784C228.978 160.538 228.838 160.316 228.621 160.183C228.1 159.862 227.246 160.464 226.729 160.763C226.188 161.076 225.664 161.433 225.195 161.734C224.662 162.077 224.106 162.507 223.688 162.903C223.274 163.295 222.628 163.759 221.932 164.112C221.666 164.247 221.475 164.42 221.403 164.64C221.369 164.747 221.467 164.864 221.566 164.937C221.993 165.252 222.431 165.315 222.601 165.514C222.931 165.902 222.357 166.471 221.933 167.034C221.576 167.603 221.407 168.128 221.257 168.656C221.234 168.79 221.24 168.924 221.453 168.978M221.742 169.13C221.771 169.287 221.902 169.887 222.006 170.367C222.124 170.917 222.162 171.371 222.466 171.796C222.771 172.223 222.846 172.518 222.882 172.713C223.027 173.49 224.806 173.536 225.165 173.691C225.755 173.947 225.231 175.182 225.362 175.394C225.712 175.962 226.359 175.956 226.813 176.129C227.186 176.271 227.335 176.724 227.668 177.093C228.001 177.461 228.4 177.769 228.663 178.184C228.939 178.62 228.577 179.117 228.396 179.482C228.199 179.879 228.444 180.501 228.647 181.078C228.792 181.491 229.359 181.609 229.81 181.738C230.087 181.818 230.329 181.718 230.479 181.637C230.94 181.388 231.152 182.735 231.189 183.185C231.237 183.76 231.085 184.539 230.967 184.992C230.941 185.091 230.865 185.168 230.747 185.205C230.204 185.378 229.647 184.939 229.178 184.731C228.673 184.506 228.217 184.12 227.876 183.849C227.544 183.587 226.923 183.45 226.462 183.215C226.012 182.986 225.969 182.463 225.884 182.051C225.798 181.633 225.776 181.122 225.513 180.706C225.215 180.237 224.773 180.08 224.418 179.829C224.054 179.572 223.693 179.269 223.356 178.946C222.924 178.532 222.637 178.211 222.208 177.968C221.473 177.551 221.113 177.021 220.935 176.617C220.747 176.19 220.892 175.697 220.65 175.35C220.337 174.9 219.887 174.908 219.701 174.916C219.288 174.933 219.156 175.593 218.677 175.814C218.106 176.077 217.477 175.75 217.043 175.607C216.686 175.489 216.392 175.136 215.981 175C215.717 174.913 215.421 174.925 215.19 174.925C214.813 174.925 214.676 175.818 214.332 176.349C213.997 176.865 213.579 177.118 213.482 177.629C213.39 178.115 213.7 178.405 213.734 178.589C213.751 178.68 213.665 178.77 213.577 178.833C213.157 179.129 212.477 178.996 212.022 179.308C211.575 179.615 211.039 180.626 209.792 181.664C209.311 182.065 209.092 182.455 208.871 182.851L208.87 182.852C208.654 183.238 208.094 183.323 207.351 183.463C207.041 183.521 206.766 183.497 206.537 183.547C206.083 183.646 206.083 184.328 205.811 184.811C205.6 185.185 205.464 185.577 205.421 186.058C205.34 186.961 206.024 188.241 206.125 188.766C206.256 189.445 206.372 189.977 206.525 190.4C206.695 190.871 206.493 191.386 206.32 191.829L206.315 191.841C206.159 192.241 205.627 192.396 205.187 192.478C204.714 192.565 204.309 192.641 203.947 192.861C203.592 193.076 203.216 193.495 202.714 193.665C202.191 193.842 201.741 193.907 201.321 194.027C200.902 194.147 200.727 194.699 200.514 195.188C200.126 196.082 199.672 196.499 199.52 196.623C199.253 196.842 199.762 195.781 199.953 195.363C200.162 194.905 200.152 194.459 200.124 193.916C200.1 193.461 200.237 193.092 200.354 192.905C200.582 192.541 201.057 192.287 201.377 191.959C201.568 191.763 201.609 191.481 201.661 191.275C201.771 190.842 201.35 190.336 201.215 189.854C201.082 189.382 201.147 188.891 201.198 188.138C201.209 187.97 201.202 187.867 201.145 187.794C200.895 187.471 200.39 187.471 199.739 187.392C199.421 187.354 199.21 187.618 199.063 187.663C198.724 187.767 198.759 186.953 198.483 186.586C198.174 186.176 197.621 186.043 197.266 185.816C196.907 185.586 196.573 185.25 196.157 185.128C195.767 185.013 194.92 184.883 194.274 184.869C193.8 184.86 192.975 184.979 192.395 185.046C191.898 185.104 191.261 185.392 190.8 185.526C190.347 185.658 189.766 185.806 189.34 185.993C188.953 186.163 188.587 186.379 187.592 186.557C186.704 186.717 186.27 186.891 185.806 187.059C185.222 187.27 184.805 187.238 183.903 187.364C183.392 187.435 182.968 187.534 182.532 187.72C182.054 187.923 181.702 188.394 181.319 188.659C180.946 188.917 180.326 188.873 179.407 188.891C178.712 188.904 178.095 188.92 177.039 189.068C176.465 189.149 175.95 189.344 175.346 189.621C174.781 189.88 174.061 190.043 172.011 190.667C170.989 190.978 170.411 191.157 169.904 191.377C169.396 191.597 168.957 191.701 168.373 191.969C167.896 192.188 167.522 192.561 167.142 192.755C166.756 192.951 166.183 193.008 165.335 192.979C164.828 192.961 164.438 192.796 163.413 192.724C162.615 192.668 162.079 192.918 161.907 192.928C161.64 192.623 161.423 192.338 161.235 192.236C161.139 192.205 161.043 192.215 160.944 192.226M161.235 192.355C161.127 192.308 160.453 192.109 159.947 191.965C159.576 191.86 159.214 191.747 158.564 191.69C157.98 191.64 157.549 191.919 157.261 192.191C156.974 192.461 157.042 192.964 156.823 193.613C156.64 194.155 156.227 194.498 155.465 195.004C154.993 195.317 154.584 195.442 154.131 195.668C153.649 195.907 153.479 196.416 153.229 196.792C152.871 197.33 152.048 197.655 151.34 198.297C150.808 198.78 150.698 199.426 150.579 199.786C150.448 200.184 150.197 200.488 150.04 201.048C149.864 201.675 149.48 201.891 149.135 202.118C148.746 202.375 148.277 202.469 147.898 202.676C146.886 203.229 145.719 204.59 145.346 204.835C144.952 205.095 144.407 205.095 144.016 205.112C143.397 205.139 142.566 205.287 142.162 205.366C141.594 205.477 140.756 205.663 139.891 205.939C139.412 206.092 139.029 206.301 138.562 206.612C137.922 207.039 136.657 207.807 135.547 208.465C135.09 208.735 134.653 208.923 133.463 209.759C132.887 210.163 132.639 210.785 132.472 211.142C132.283 211.546 131.897 211.819 131.402 212.236C130.582 212.928 130.275 213.164 129.977 213.444C129.523 213.872 128.869 214.324 127.871 214.792C127.398 215.014 127.012 215.138 126.572 215.409C126.197 215.64 126.066 216.087 125.892 216.473C125.68 216.942 125.5 217.284 125.365 217.691C125.329 217.799 125.308 217.914 125.33 218.02C125.419 218.444 125.747 218.741 125.979 219.498C126.261 220.419 126.28 221.132 126.333 221.532C126.382 221.908 126.541 222.238 126.692 222.635C126.83 223 127.054 223.366 127.132 223.766C127.218 224.201 127.195 225.006 127.058 225.751C126.981 226.167 126.863 226.646 126.63 227.279C126.41 227.879 126.101 228.321 125.872 228.701C125.566 229.21 125.296 229.959 124.923 230.663C124.627 231.222 124.269 232.344 123.768 233.585C123.55 234.125 123.359 234.463 123.19 234.793C123.103 234.963 122.917 235.063 122.709 235.118C122.276 235.233 121.788 234.771 121.353 234.623C120.746 234.417 119.614 234.155 118.507 233.854C117.732 233.644 117.3 233.585 116.908 233.53L116.895 233.529C116.464 233.469 116.282 233.167 116.134 233.045C115.735 232.714 115.019 233.278 114.691 233.449C114.349 233.628 114.315 234.126 114.079 234.685C113.823 235.289 113.485 235.777 113.091 236.477C112.833 236.935 112.568 237.277 112.302 237.646C111.854 238.268 111.252 239.428 110.837 240.35C110.642 240.784 110.465 241.134 110.261 241.496C110.152 241.69 110.014 241.846 109.864 241.939C109.686 241.977 109.479 241.991 109.264 242.004C109.157 242.007 109.055 242.004 108.839 242.092M108.917 242.012C108.851 242.061 108.588 242.277 108.373 242.612C108.02 243.162 107.98 243.504 107.772 243.822C107.465 244.292 107.231 244.753 107.109 245.239C107.004 245.658 106.932 246.056 106.849 246.477C106.692 247.266 106.585 247.667 106.434 248.082C106.324 248.383 106.194 248.684 105.901 249.145C105.465 249.83 105.049 250.56 104.592 251.427C104.394 251.8 104.199 252.042 104.014 252.304C103.781 252.634 103.743 253.36 103.647 253.877C103.534 254.482 103.391 254.962 103.096 256.014C102.878 256.792 102.812 257.252 102.632 257.859C102.575 258.051 102.47 258.152 102.354 258.22C102.099 258.368 101.577 258.444 101.137 258.647C100.864 258.773 100.692 259.065 100.474 259.296C100.256 259.527 100.07 259.777 99.8662 260.056C99.6103 260.407 99.5049 260.751 99.4294 261.105C99.3216 261.61 99.4946 261.902 99.6211 262.182C99.7831 262.54 100.049 262.905 100.196 263.226C100.477 263.837 100.4 264.662 100.448 265.072C100.493 265.455 100.659 266.19 100.78 266.67C100.868 267.016 101.006 267.275 101.111 267.698C101.313 268.504 100.898 269.678 100.758 270.05C100.653 270.33 100.336 270.646 99.2081 271.678C98.7598 272.088 98.6004 272.476 98.4332 272.805C98.1936 273.276 97.9844 273.656 97.721 273.9C97.4732 274.129 97.2048 274.336 96.9618 274.636C96.5365 275.16 96.4161 275.542 96.4123 275.894C96.4086 276.249 96.2542 276.747 96.1803 277.275C96.0675 278.082 96.004 278.587 95.9174 279.016L95.9156 279.025C95.8537 279.332 95.7671 279.761 95.6578 280.116C95.5518 280.461 95.3742 280.738 95.113 281.062C94.8501 281.389 94.5321 281.631 94.2242 281.826C93.9122 282.023 93.4737 282.154 93.0696 282.313C92.6477 282.478 92.3391 282.708 92.0185 282.88C91.8775 282.956 91.791 283.091 91.7351 283.253C91.5987 283.649 91.6919 284 91.5959 284.35C91.502 284.692 91.3509 285.161 91.1665 285.546C90.9072 286.087 90.8444 286.382 90.7001 286.683C90.5097 287.079 90.3446 287.373 90.206 287.758C90.0937 288.07 89.8639 288.478 89.6519 288.811C89.4462 289.135 89.2041 289.456 88.9942 289.755C88.8086 290.019 88.6081 290.252 88.3437 290.482C88.125 290.672 87.8079 290.735 87.4823 290.889C87.0504 291.094 86.8616 291.329 86.6325 291.512C86.3839 291.712 86.4352 292.098 86.4082 292.391C86.3812 292.685 86.3377 293.132 86.2582 293.892C86.2494 294.051 86.2602 294.141 86.2669 294.223C86.2735 294.305 86.2756 294.378 86.3102 294.633M86.307 294.732C86.2071 294.812 85.7968 295.023 85.3802 295.102C85.0641 295.162 84.7491 295.26 84.4736 295.313C84.0826 295.388 83.4528 295.565 82.8622 295.793C82.7448 295.838 82.683 295.871 82.6427 295.92C82.4722 296.125 82.6073 296.515 82.5591 297.094C82.505 297.745 81.874 298.038 81.5401 298.398C81.2897 298.668 81.0386 298.832 80.7414 299.096C80.4768 299.33 80.271 299.563 80.0806 299.802C79.8999 300.029 79.6266 300.276 79.2715 300.567C78.8198 300.936 78.7486 301.666 78.627 302.512C78.5152 303.29 77.9979 304.091 77.5303 305.348C77.3012 305.964 77.3627 306.598 77.2223 307.932C76.9771 310.261 76.6829 310.501 76.5903 310.961C76.3984 311.914 76.3148 312.622 76.2226 313.112C76.0165 314.205 75.6625 315.626 75.597 316.005C75.4742 316.716 75.5396 317.039 75.5176 317.65C75.5028 318.062 75.5913 318.452 75.6055 318.803C75.6181 319.116 75.7053 319.814 75.7732 320.315C75.8405 320.811 75.7552 321.653 75.8594 322.178C75.9747 322.76 75.9256 323.125 75.9776 323.638C76.0164 324.021 76.1401 324.312 76.2362 324.77C76.4226 325.658 76.4196 326.18 76.5772 326.749C76.7557 327.392 76.8347 327.731 76.9206 328.083C77.1092 328.855 76.9849 329.663 77.0668 330.002C77.1893 330.509 77.1868 330.901 77.2956 331.446C77.4199 332.068 77.6613 332.321 77.731 332.687C77.8544 333.337 77.99 334.113 78.1072 334.734C78.2083 335.27 78.0362 336.272 78.0195 336.916C78.0094 337.305 78.0211 337.627 78.0526 338.046C78.0785 338.39 78.1772 338.807 78.3109 339.175C78.4173 339.468 78.6401 339.753 78.8883 339.919C79.2447 340.156 79.8223 339.976 80.0997 340.048C80.3769 340.119 80.6071 340.295 80.9416 340.513C81.4251 340.829 82.3708 341.237 82.7365 341.494C83.0405 341.707 83.1885 342.176 83.6974 342.713C84.0197 343.054 84.3585 343.295 84.5447 343.593C84.9928 344.309 84.9451 345.104 85.0475 345.452C85.0702 345.529 85.1072 345.6 85.1525 345.655C85.4272 345.987 86.2234 345.844 86.8348 345.859C87.2194 345.868 87.5034 345.768 87.7685 345.88C88.1159 346.027 88.434 346.509 88.8969 346.989C89.2061 347.309 89.4441 347.571 89.6132 347.817C89.861 348.178 89.5174 348.872 89.4516 349.207C89.4321 349.283 89.4003 349.357 89.3806 349.431C89.3609 349.504 89.3542 349.574 89.3364 349.599M75.2918 388.024C75.2754 387.982 75.2485 387.887 75.1925 387.748C75.0797 387.468 74.7104 387.446 74.1943 387.279C73.347 387.005 72.9911 386.935 72.1794 386.6C71.7313 386.416 71.299 386.455 71.0387 386.339C70.7475 386.209 70.4981 386.016 70.3675 385.778C70.2117 385.495 70.1924 385.15 70.0354 384.88C69.8921 384.635 69.7971 384.25 69.6655 383.91C69.5475 383.606 69.2714 383.319 68.9719 383.051C68.6384 382.752 68.1645 382.15 67.7114 381.579C67.4859 381.295 67.3428 380.988 67.2126 380.721C67.0843 380.458 66.8695 380.246 66.8227 379.947C66.7449 379.451 67.0844 379.036 67.2781 378.5C67.4558 378.008 67.8094 377.511 68.2548 376.545C68.6 375.795 68.8091 375.345 69.1086 374.703C69.6457 373.553 70.0574 372.712 70.103 372.472C70.235 371.778 69.9959 371.091 69.966 370.59C69.9336 370.049 69.9667 369.474 70.0434 368.144L70.0522 367.992C70.081 367.491 70.0625 367.037 70.1353 366.143C70.1936 365.428 70.5243 364.422 70.6679 363.715C70.7675 363.224 71.1337 362.795 71.7376 362.054C72.0134 361.716 72.3 361.459 72.5729 361.158C72.8003 360.908 72.9864 360.458 73.2195 359.954C73.6292 359.069 73.8786 358.55 74.1167 358.136C74.4121 357.622 75.2519 357.403 75.6672 357.164C76.0732 356.929 76.5083 356.778 76.8641 356.62C77.2687 356.44 77.8413 356.367 79.1046 355.625C80.4568 354.83 81.1391 354.195 81.5245 354.002C82.4118 353.559 83.3327 352.992 83.6 352.848C83.9904 352.638 84.5722 352.358 85.2087 352.086C85.8025 351.832 86.4917 351.594 87.0826 351.3C88.1083 350.79 88.7154 350.547 89.0028 350.336C89.0594 350.274 89.0959 350.207 89.1365 350.132L89.1422 350.122C89.1819 350.048 89.2253 349.968 89.2879 349.845M75.457 388.306C75.5665 388.406 75.7409 388.654 75.8748 388.926C76.0591 389.299 76.1409 389.824 76.1795 390.647C76.2643 392.453 76.5421 393.422 76.6491 393.734C76.7697 394.085 76.8261 394.344 76.9084 394.499C77.0476 394.761 77.5464 394.355 77.8217 394.298C78.1124 394.237 78.3833 394.207 78.7504 394.132C79.0968 394.062 79.3866 394.013 79.5227 394.031C79.5851 394.039 79.6125 394.12 79.5958 394.19C79.5003 394.589 78.8575 394.924 78.4369 395.235C78.2866 395.347 78.1536 395.429 78.0652 395.545C77.8716 395.798 78.1295 396.24 78.1104 396.603C78.1028 396.748 77.9319 396.838 77.7835 396.91C77.5352 397.031 77.1917 396.78 76.9073 396.627C76.6595 396.494 76.5062 396.223 76.2178 396.032C75.9349 395.846 75.5117 395.926 74.9194 395.966C74.2725 396.009 73.3449 396.187 72.9736 396.298C72.6463 396.396 72.0716 396.512 71.3472 396.601C70.7176 396.677 69.7782 396.917 68.8522 397.168C68.0751 397.378 67.7783 397.44 67.4086 397.604C66.8409 397.856 66.1792 398.31 65.8088 398.579C65.2918 398.956 64.6375 399.167 64.4154 399.422C63.9023 400.011 63.9483 400.659 63.8219 401.014C63.5774 401.701 63.581 401.992 63.5122 402.524C63.454 402.974 63.3669 403.492 63.265 404.369C63.2105 404.839 63.0663 405.454 62.9742 406.643C62.9363 407.131 63.1637 407.556 63.3003 408.048C63.4412 408.556 63.5671 408.92 63.6576 409.276C63.739 409.596 63.9137 409.847 64.1782 410.126C64.3553 410.314 64.5504 410.402 64.6708 410.398C64.97 410.389 65.1425 410.05 65.4249 410.048C65.7141 410.047 65.8949 410.341 66.1226 410.492C66.3616 410.65 66.5676 410.839 66.7279 411.062C66.9126 411.319 66.338 411.82 66.2589 412.191C66.1983 412.476 66.6733 412.596 66.9607 412.82C67.2922 413.079 67.8612 412.964 68.2194 412.933C68.633 412.896 68.9659 412.845 69.3074 412.739C69.8921 412.559 70.6354 412.398 71.6382 412.433C72.2834 412.455 72.5379 412.572 72.6588 412.664C72.7167 412.708 72.7387 412.779 72.7348 412.842C72.7177 413.117 72.3825 413.268 71.9357 413.48C71.4325 413.719 70.9834 414.486 70.9368 414.78C70.8901 415.074 71.1963 415.339 71.3007 415.64C71.3269 415.715 71.3432 415.797 71.4034 415.856C71.6558 416.104 72.313 416 72.7457 415.99C73.0298 415.984 73.2696 415.736 73.5281 415.558C73.8002 415.371 74.0772 415.242 74.3889 415.162C74.734 415.073 75.0732 415.101 75.4819 415.114C75.8092 415.124 76.1312 415.412 76.4007 415.616C76.6824 415.829 77.0024 415.895 77.3444 415.98C77.8453 416.105 78.5958 416.388 79.0243 416.611C79.6643 416.945 79.9605 417.002 80.2485 417.097C80.383 417.141 80.446 417.315 80.5025 417.474C80.5536 417.618 80.5484 417.802 80.4948 418.013C80.3978 418.395 80.0844 418.547 79.8871 418.775C79.6868 419.006 79.378 419.282 79.0601 419.428C78.7272 419.581 78.3635 419.709 78.1454 419.974C77.9116 420.259 78.2637 420.68 78.41 420.96C78.5643 421.256 79.2442 420.99 79.5744 420.965C79.878 420.942 80.0775 421.221 80.3293 421.381C80.4826 421.478 80.6437 421.537 80.7662 421.599C80.827 421.63 80.8605 421.699 80.8652 421.761C80.8699 421.823 80.8384 421.885 80.7653 421.926C80.4255 422.116 80.0775 422.035 79.8128 422.288C79.5886 422.503 79.3809 422.659 79.3031 422.769C79.1326 423.008 79.375 423.584 79.3082 424.082C79.2702 424.365 78.539 424.168 78.124 424.18C77.5784 424.195 76.9158 424.173 76.6141 424.21C76.1718 424.264 75.2743 424.253 74.8192 424.187C74.4493 424.133 74.0955 424.086 73.8253 424.088C73.5455 424.09 73.1646 424.104 72.8077 424.109C72.3686 424.114 71.9644 424.287 71.6735 424.425C71.2989 424.601 70.8891 424.867 70.6273 425.187C70.3742 425.497 69.9997 425.945 69.6544 426.164C69.3591 426.352 69.1325 426.512 69.0153 426.792C68.8469 427.195 69.0741 427.667 69.1805 427.954C69.2828 428.23 69.4363 428.576 69.6665 428.919C69.8435 429.184 70.0624 429.427 70.3676 429.708L70.3808 429.723C70.5815 429.96 70.7715 430.183 70.942 430.547C70.9753 430.642 70.9964 430.713 71.0439 430.834M47.7409 469.246C47.7885 469.168 48.3339 468.728 48.8943 468.313C49.1865 468.096 49.5792 468.069 49.8971 468.038C50.1809 468.011 50.2498 467.603 50.4741 467.252C50.6621 466.958 50.7327 466.616 50.8906 466.251C51.2015 465.533 51.2791 464.897 51.5871 464.203C51.8361 463.643 51.9962 462.991 52.1211 462.627C52.2178 462.346 52.8301 462.511 53.1762 462.507C53.521 462.503 53.932 462.3 54.2546 462.095C54.777 461.763 54.9992 461.534 55.1889 461.289C55.497 460.89 55.7259 460.203 55.9236 459.987C56.2258 459.659 56.8081 459.54 57.1637 459.289C57.5702 459.002 57.7147 458.72 57.9403 458.227C58.09 457.901 58.2518 457.524 58.461 456.993C58.6218 456.584 58.8092 456.357 59.0595 456.117C59.342 455.847 59.6792 455.654 60.1118 455.326C60.4774 455.048 60.7778 454.68 60.9863 454.385C61.2449 454.02 61.1947 453.712 61.2637 453.103C61.3074 452.718 61.7214 452.547 62.0379 452.381C62.3913 452.196 62.7357 451.95 63.0711 451.694C63.1493 451.635 63.2087 451.578 63.2174 451.519C63.258 451.243 63.0423 450.725 63.0168 450.329C62.9948 449.986 63.0363 449.572 63.1095 449.26C63.1984 448.881 63.634 448.631 63.9742 448.363C64.279 448.123 64.536 447.932 64.8258 447.794C65.1019 447.663 65.4375 447.563 65.729 447.41C66.0841 447.225 66.4792 446.897 66.7116 446.667C66.913 446.467 67.0253 446.185 67.0849 445.786C67.1384 445.427 67.0336 445.068 66.9456 444.789C66.8536 444.497 66.9045 444.075 66.8921 443.727C66.8815 443.428 66.7906 443.127 66.7315 442.824C66.6334 442.321 66.7886 441.783 66.8745 441.678C67.1384 441.356 67.8991 441.362 68.2451 441.278C68.5398 441.206 68.8546 441.238 69.1156 441.114C69.4246 440.967 69.6854 440.62 69.8486 440.371C70.011 440.123 69.8436 439.756 69.8299 439.437C69.817 439.137 69.7871 438.847 69.7653 438.577C69.7424 438.294 69.6814 437.997 69.6448 437.683C69.6117 437.4 69.5936 437.109 69.5926 436.716C69.5909 436.042 69.6558 435.526 69.7035 434.843C69.7278 434.497 69.8359 434.231 69.9243 433.969C70.0393 433.628 70.2907 433.245 70.4579 432.777C70.5128 432.561 70.5896 432.214 70.6511 431.935L70.6601 431.894C70.723 431.609 70.7646 431.422 70.8255 431.201M1.77495 496.639C1.72053 496.543 1.55756 496.093 1.51238 495.754C1.47578 495.48 1.52183 495.027 1.59267 494.679C1.64799 494.408 1.76804 494.069 1.88327 493.728C1.97781 493.449 2.14267 493.162 2.32158 492.988C2.51314 492.802 2.6125 492.53 2.67741 492.22C2.76456 491.804 2.70702 491.519 2.69515 491.254C2.6826 490.975 2.6852 490.692 2.72851 490.351C2.78857 489.878 3.04891 489.639 3.24576 489.408C3.5591 489.04 3.7847 488.91 4.07699 488.642C4.49224 488.262 4.5605 487.898 4.69301 487.647C4.90675 487.242 4.92443 486.882 5.02377 486.503C5.27813 485.534 5.39892 485.246 5.50627 484.92C5.7447 484.196 5.99781 483.741 6.15467 483.447C6.41677 482.956 6.76304 482.319 7.13876 481.557C7.33198 481.165 7.70025 480.789 8.04385 480.226C8.26261 479.868 8.64279 479.363 8.92702 478.986L8.93418 478.976C9.35636 478.416 9.55333 478.055 9.90656 477.548C10.5306 476.652 11.0877 475.842 11.3138 475.485C11.5194 475.161 11.7581 474.753 12.0435 474.263C12.4415 473.578 12.5873 473.255 12.7805 472.874C12.8616 472.714 12.9232 472.565 13.1283 472.114C13.6112 471.052 13.9927 470.251 14.1001 470.022C14.3253 469.543 14.5976 468.969 14.8184 468.527C15.0388 468.085 15.419 467.406 15.6657 466.951C15.9377 466.448 16.534 465.502 16.9333 464.827C17.267 464.262 17.7404 463.763 17.9674 463.429C18.1764 463.121 18.4568 462.794 18.6477 462.588C18.8961 462.319 19.3325 462.03 19.6349 461.972C19.7887 461.942 20.0344 461.97 20.2945 462.016C20.673 462.083 20.7413 462.717 20.9011 462.9C21.0738 463.097 21.4558 463.038 21.912 463.094C22.2357 463.134 22.4826 463.216 22.7386 463.302C22.9084 463.359 23.0756 463.445 23.2037 463.533C23.3122 463.608 23.3013 463.785 23.2765 463.956C23.2269 464.298 23.0173 464.505 22.8138 464.679C22.5669 464.889 22.1531 464.99 21.8438 465.152C21.5526 465.304 21.2463 465.526 20.8907 465.747C20.5219 465.975 19.9807 466.349 19.5983 466.712C19.3414 466.957 18.984 467.691 18.8098 468.215C18.6724 468.627 18.699 469.167 18.6757 469.752C18.6677 469.951 18.7108 470.074 18.7812 470.174C18.9228 470.375 19.2009 470.412 19.4301 470.485C19.6643 470.559 19.9103 470.645 20.2358 470.743C20.5724 470.845 21.8678 471.02 22.8191 471.086C24.3893 471.196 24.8267 471.316 25.5269 471.426C25.9714 471.496 26.4718 471.647 26.8209 471.732C27.2953 471.847 27.55 471.869 27.7981 471.924C28.0597 471.981 28.2447 472.153 28.4831 472.459C28.6716 472.701 29.2723 472.894 29.9658 473.099C30.9351 473.386 31.7839 473.394 32.4965 473.643C32.8799 473.777 33.1944 473.842 33.4679 473.901C33.9228 473.999 34.3793 474.171 34.6808 474.31C35.0556 474.482 35.3187 474.619 36.1014 475.088C36.6425 475.413 37.1562 475.629 37.4198 475.707C37.751 475.806 38.2488 475.866 38.7184 476.025C39.1636 476.175 39.4923 476.145 39.7771 476.051C40.0662 475.956 40.2869 475.732 40.5303 475.683C40.7806 475.632 40.9853 475.482 41.241 475.388C41.5554 475.272 41.8726 475.345 42.1809 475.251C42.5641 475.135 43.0502 474.709 43.4012 474.444C43.5938 474.298 43.5945 473.941 43.5952 473.579L43.5952 473.569C43.596 473.162 43.7163 472.891 43.8258 472.616C43.982 472.225 44.293 471.867 44.6278 471.449C44.8349 471.19 45.0924 470.98 45.2947 470.823C45.512 470.654 45.823 470.496 46.1009 470.325C46.3128 470.195 46.5665 469.95 46.8217 469.722C47.0444 469.559 47.2271 469.426 47.3264 469.363C47.3755 469.33 47.4217 469.296 47.4823 469.261M1.98214 497.053C2.14102 497.127 3.24561 497.766 3.92824 498.094C4.21253 498.23 4.51219 498.287 4.86055 498.293C5.28403 498.299 5.61069 498.182 6.21761 498.078C6.58281 498.015 6.8525 498.051 7.26648 498.272C7.68552 498.496 8.14785 498.655 8.46711 498.632C8.65683 498.618 8.8035 498.517 9.25421 498.371C11.1595 497.756 11.4129 497.483 11.663 497.2C12.0075 496.811 12.3693 496.249 12.6031 495.761C13.2165 494.482 13.7311 493.813 14.0088 493.453L14.0192 493.439C14.2402 493.152 14.5917 492.529 14.9535 491.924C15.4271 491.131 15.6128 490.905 15.7879 490.705C16.2386 490.19 17.6421 490.76 17.9564 490.87C18.2062 490.957 18.4646 491.006 18.7524 491.181C19.1426 491.419 19.4727 491.541 19.7476 491.626C20.1431 491.748 20.7172 491.823 20.9901 491.873C21.429 491.955 21.8675 491.823 22.5289 491.744C23.1728 491.667 24.1792 491.43 24.8398 491.225C24.994 491.177 25.1391 491.165 25.2965 491.183C25.728 491.233 26.1554 491.762 26.4725 491.859C26.6072 491.901 26.7454 491.925 27.4019 492.006C27.9833 492.078 29.0719 492.184 29.6565 492.26C30.2936 492.342 30.4347 492.521 30.7373 492.768C31.0095 492.99 31.2683 493.152 31.4634 493.365C31.7481 493.675 31.8417 493.987 32.1029 494.198C32.1627 494.246 32.216 494.284 32.2396 494.335C32.2632 494.386 32.2575 494.445 32.235 494.498C32.19 494.603 32.0775 494.672 31.9568 494.72C31.6332 494.846 31.1575 494.583 30.8542 494.572C30.6823 494.565 30.5951 494.727 30.4951 494.828C30.3931 494.932 30.3583 495.075 30.3545 495.209C30.3471 495.471 30.6211 495.669 30.8322 495.852C31.1027 496.087 31.495 496.231 32.224 496.653C32.868 497.026 33.2079 497.174 33.4638 497.421C33.6559 497.607 33.8343 497.839 34.1589 498.129C34.4658 498.403 34.9851 498.744 35.2193 498.97C35.417 499.161 35.6151 499.43 35.8 499.676C35.9955 499.936 36.1736 500.32 36.4307 500.679C36.6291 500.957 36.7655 501.339 36.9537 501.795C37.0996 502.148 37.4506 502.936 37.8538 503.892C38.1483 504.591 38.3252 504.975 38.4187 505.377C38.5556 505.966 38.7646 506.429 38.8916 506.756C38.9902 507.009 39.1743 507.32 39.3595 507.605C39.5256 507.86 39.8826 508.45 40.2185 509.099C40.7864 510.197 40.9625 510.726 41.0578 511.134C41.1255 511.425 41.1603 511.785 41.247 512.095C41.3414 512.433 41.4769 512.715 41.7379 513.088C41.9039 513.326 42.162 513.555 42.4167 513.73C42.7234 513.941 43.3672 514.395 44.5016 514.922C45.0444 515.174 45.5138 515.615 45.6896 515.85C45.9148 516.151 46.0173 516.673 46.0898 516.971C46.1785 517.337 46.0243 517.841 45.9684 518.266C45.9024 518.768 45.824 519.172 45.6123 519.812C45.4255 520.377 45.5534 520.748 45.6423 521.155C45.7215 521.517 46.3171 522.17 47.0112 522.831C47.9364 523.711 48.5885 523.923 48.8939 524.172C49.2859 524.49 50.3927 525.156 51.1402 525.556C51.6086 525.807 52.5959 526.024 53.1142 526.043C53.4094 526.054 53.6911 526.011 53.944 525.955C54.1806 525.902 54.4265 525.885 55.6916 526.001C56.0189 526.047 56.3347 526.087 56.7935 526.151C56.996 526.19 57.1371 526.243 57.3848 526.321M57.4954 526.31C57.646 526.306 58.1537 526.321 58.6285 526.321C58.9837 526.322 59.3371 526.138 59.696 525.943C60.2251 525.657 60.5648 525.432 60.8916 525.319C61.2216 525.205 61.5356 524.736 61.9083 524.408C62.2364 524.119 62.7065 523.91 63.1809 523.675C63.6154 523.46 64.0173 523.424 64.356 523.384C64.5302 523.363 64.6886 523.466 64.8012 523.591C65.1886 524.02 64.7335 524.997 64.6173 525.38C64.5162 525.712 64.3093 526.035 63.9884 526.405C63.6956 526.743 63.7506 527.2 63.709 527.542C63.6918 527.683 63.4319 527.679 63.297 527.798C62.9897 528.069 62.9932 528.523 63.0298 528.914C63.0466 529.094 63.2079 529.208 63.3514 529.285C63.6379 529.439 63.9975 529.217 64.33 529.158C64.7981 529.076 65.3261 529.257 65.6322 529.386C65.9649 529.526 66.2717 529.665 66.5892 529.771C66.9832 529.902 67.1369 530.52 67.3715 531.019C67.5667 531.434 67.8559 531.678 68.336 531.87C69.3729 532.285 69.7382 532.249 70.0635 532.41C70.5724 532.663 71.0685 533.233 71.5817 533.672C72.1279 534.139 72.4854 534.45 73.0897 534.798C74.4275 535.569 74.8341 535.89 75.2 536.167C75.508 536.401 75.8038 536.768 76.8496 537.571C77.3706 537.971 77.7952 538.338 78.1837 538.621C79.2428 539.391 80.5262 540.435 80.9023 540.666C81.2891 540.904 82.2729 541.205 83.0121 541.338C83.5579 541.437 84.2609 541.331 85.3714 541.429C85.9231 541.478 86.2134 541.729 86.4994 541.92C86.7981 542.12 87.2259 542.347 87.776 542.612C88.1973 542.814 88.4629 543.097 88.6686 543.393C88.8827 543.7 88.8126 544.134 88.8777 544.481C88.9603 544.921 89.0044 545.305 89.0783 545.778C89.1088 545.974 89.2167 546.278 89.328 546.65C89.44 547.025 89.9394 547.061 90.4007 547.155C91.2531 547.328 92.0866 547.947 92.6812 548.218C93.0831 548.401 93.542 548.515 94.003 548.614C94.5801 548.737 95.3389 548.809 95.7316 548.936C96.4013 549.153 97.5452 549.164 97.9594 549.179C98.4121 549.196 98.7775 549.363 99.0844 549.504L99.0945 549.508C99.2538 549.584 99.41 549.677 99.5578 549.779C99.6326 549.826 99.707 549.863 99.9635 549.918M100.274 550.065C100.466 550.083 101.137 550.432 101.614 550.986C102.179 551.643 102.846 552.394 103.561 553.062C104.212 553.669 104.886 554.138 105.703 554.752C106.466 555.325 107.107 555.981 107.663 556.527C108.252 557.104 109.318 556.502 110.081 556.486C110.832 556.47 111.55 556.914 112.423 557.116C114.013 557.484 114.93 557.321 115.761 557.285C116.914 557.234 117.893 557.228 118.818 557.257C120.088 557.297 121.863 557.318 122.644 557.099C123.414 556.882 124.014 556.357 125.133 556.331C125.567 556.294 125.913 556.234 126.262 556.194C126.44 556.178 126.621 556.169 126.847 556.164M127.08 556.324C127.277 556.343 128.106 556.449 129.039 556.625C129.762 556.762 130.38 556.533 130.896 556.351C131.306 556.207 131.629 555.842 131.998 555.444C132.462 554.944 132.902 554.817 133.299 554.634C133.825 554.391 134.103 553.741 134.39 553.29C134.707 552.791 135.154 552.612 135.527 552.364C136.025 552.033 136.363 551.75 136.659 551.389C137.003 550.971 137.079 550.439 137.232 549.993C137.375 549.577 137.715 549.188 138.113 548.93C138.816 548.474 140.153 548.669 141.332 548.798C141.688 548.837 141.83 549.082 141.946 549.269C142.159 549.611 142.057 549.992 142.132 550.197C142.271 550.577 143.034 550.491 143.518 550.592C144.174 550.729 145.436 550.789 146.197 550.929C146.653 551.014 147.046 551.248 147.403 551.49C147.733 551.713 147.87 552.161 148.067 552.769C148.219 553.239 148.316 553.652 148.534 554.161C148.714 554.583 149.142 554.897 150.261 555.684C150.838 556.091 152.223 556.375 153.433 556.847C154.313 557.191 154.731 557.387 155.237 557.625L155.263 557.637C156.394 558.168 157.361 558.82 158.172 559.242C158.944 559.642 159.406 559.814 159.846 560.281C160.204 560.661 160.529 561.196 161.375 561.715C162.183 562.21 162.608 562.634 162.629 562.837C162.674 563.265 162.161 563.58 161.904 563.925C161.59 564.345 161.036 564.38 160.883 564.501C160.606 564.72 161.264 565.169 161.493 565.54C161.763 565.978 162.248 566.134 162.692 566.224C163.159 566.319 163.584 566.428 163.97 566.565C164.36 566.703 164.807 566.561 165.467 566.623C165.951 566.669 166.351 566.921 166.777 567.019C167.204 567.117 167.701 567.296 168.302 567.436C168.739 567.538 169.311 567.88 169.855 568.206L169.877 568.219C170.584 568.642 170.911 568.947 171.232 569.274C171.549 569.597 172.08 569.817 172.562 570.045C173.006 570.211 173.572 570.311 174.234 570.509C174.371 570.564 174.471 570.612 174.81 570.804M175.075 570.94C175.457 571.091 176.397 571.477 176.838 571.604C177.397 571.766 179.341 571.506 180.949 571.488C181.547 571.481 182.282 571.374 182.948 571.224C183.705 571.054 184.362 571.069 184.936 571.031C185.229 571.012 185.795 570.916 186.814 570.843C188.172 570.746 189.429 570.723 190.413 570.813C192.32 570.988 193.182 571.257 193.72 571.448C194.681 571.788 195.165 571.919 195.679 572.132C196.328 572.4 196.882 572.668 197.42 572.885C197.935 573.093 198.602 573.481 199.21 573.876C200.066 574.431 200.492 574.903 200.77 575.369C201.116 575.951 201.393 576.413 201.765 576.825C202.299 577.415 202.696 577.907 203.212 578.214C203.838 578.586 204.753 578.529 205.779 578.713C206.635 578.867 207.087 578.96 207.86 579.119L207.886 579.125C208.324 579.215 208.661 579.189 208.88 579.137C208.997 579.109 209.112 579.037 209.191 578.947C209.526 578.563 209.442 577.899 209.674 577.419C209.918 576.913 210.332 576.626 210.764 576.304C211.171 576.001 211.747 575.839 212.306 575.795C212.741 575.761 213.106 575.879 213.317 575.947L213.327 575.95C213.537 576.018 213.685 576.183 213.757 576.386C213.914 576.829 213.504 577.145 213.48 577.348C213.418 577.855 214.336 578.36 214.79 578.805C215.323 579.328 215.84 579.584 216.215 579.834C216.602 580.092 217.078 580.129 217.344 580.53C217.64 580.978 217.788 581.474 218.152 581.779C218.601 582.158 219.353 582.243 219.817 582.366C220.296 582.492 220.734 582.743 221.285 582.909C222.426 583.253 223.108 582.957 223.895 582.991C224.066 582.998 224.166 582.944 224.21 582.87C224.404 582.549 223.944 582.238 223.97 582.04C223.983 581.941 224.105 581.877 224.244 581.836C224.861 581.655 225.544 581.962 226.087 582.114C226.782 582.308 228.083 582.229 228.761 582.11C229.4 581.998 229.928 581.554 230.391 581.361C230.857 581.167 231.28 581.035 231.782 580.852C232.356 580.642 232.813 580.384 233.367 580.181C233.814 580.017 234.648 579.77 235.487 579.569C236.41 579.348 236.946 579.45 237.544 579.469C238.384 579.497 238.854 579.407 239.34 579.39C240.231 579.359 241.554 579.343 242.275 579.257C242.786 579.196 243.307 579.149 243.779 579.034C244.374 578.889 244.966 578.755 245.413 578.647C245.85 578.541 246.249 578.317 246.613 578.013C246.97 577.716 247.433 577.395 247.893 577.122C248.355 576.847 248.885 576.596 249.691 576.596C250.225 576.596 250.686 576.57 251.241 576.57C251.375 576.57 251.48 576.564 251.879 576.561M252.135 576.573C252.301 576.582 252.72 576.583 253.104 576.547C253.533 576.507 254.208 576.226 254.783 576.174C255.218 576.135 255.589 576.403 255.947 576.557C256.355 576.732 256.835 577.035 257.621 577.359C258.802 577.846 259.293 577.451 259.669 577.332C260.057 577.209 260.385 577.023 260.823 577.041C261.23 577.058 261.609 577.248 262.234 577.326C262.833 577.401 263.238 577.244 263.616 576.94C263.941 576.679 264.352 576.446 264.877 576.29C265.561 576.088 266.311 575.92 267.08 575.838C267.773 575.764 268.656 575.476 269.144 575.405C269.642 575.332 270.153 575.33 271.531 575.389C272.451 575.428 273.973 575.46 274.846 575.476C275.289 575.484 275.699 575.463 276.325 575.474C277.583 575.496 278.204 575.48 278.748 575.389C279.252 575.305 280.241 575.078 281.599 574.762C282.647 574.517 283.235 574.4 283.649 574.274C284.158 574.12 284.505 573.846 285.036 573.584C286.097 573.059 286.603 572.786 287.046 572.6C287.459 572.427 287.827 571.942 287.978 571.533C288.172 571.005 288.431 570.266 288.679 569.887C289.029 569.354 289.51 569.233 289.947 568.997C290.383 568.762 290.994 568.601 291.567 568.504C292.29 568.381 292.834 568.503 293.308 568.498C293.702 568.494 294.013 568.056 294.452 567.811C294.819 567.606 295.309 567.114 295.83 566.674C296.31 566.27 296.495 565.864 296.6 565.442C296.692 565.068 297.062 564.821 297.474 564.642C297.85 564.478 298.328 564.913 298.692 565.168C299.057 565.424 299.54 565.612 299.903 565.76C300.373 565.952 301.025 565.872 301.587 565.821C302.686 565.723 303.398 565.493 304.065 565.328C304.845 565.136 305.701 564.862 306.601 564.606C307.974 564.214 308.522 564.339 308.952 564.191C309.342 564.057 309.72 563.789 310.295 563.547C310.846 563.315 311.384 563.214 311.857 563.056C312.354 562.891 312.887 562.802 313.315 562.659C313.862 562.477 314.617 562.325 315.537 562.145L315.561 562.141C316.06 562.044 316.427 561.972 317.064 561.988C317.521 561.996 317.92 562.02 318.441 562.022C318.565 562.012 318.658 561.985 318.82 561.922M319.285 562.036C319.301 562.037 319.559 562.054 319.963 561.854C320.586 561.547 320.279 560.638 320.42 560.437C320.591 560.195 320.828 560.025 321.098 559.939C321.931 559.673 322.802 560.018 323.299 559.889C323.738 559.776 323.784 559.255 323.914 559.079C323.979 558.992 324.094 558.955 324.192 558.966C324.678 559.018 325.056 559.607 325.435 559.851C325.816 560.098 326.463 559.942 328.035 560.045C328.74 560.091 329.345 559.788 329.89 559.727C330.481 559.661 331.51 559.405 332.299 559.239C332.965 559.099 333.679 558.937 334.224 558.768C334.724 558.614 335.254 558.397 335.77 558.281C336.299 558.162 336.84 558.033 337.718 557.791C340.06 557.145 341.167 556.742 341.801 556.51C342.432 556.279 342.904 556.184 343.344 556.086C343.947 555.951 344.645 556.201 344.88 556.399C345.361 556.805 345.305 557.44 345.442 557.579C345.774 557.914 346.489 557.458 346.995 557.429C347.449 557.403 348.948 556.945 350.043 556.462C350.568 556.231 351.025 555.809 351.548 555.497C352.271 555.066 353.135 554.78 353.619 554.648C354.267 554.473 355.259 554.294 356.534 553.908C357.893 553.496 358.687 552.96 359.68 552.438C361.589 551.433 362.303 551.054 363.035 550.73C363.989 550.308 364.526 550.102 365.163 549.793C365.678 549.543 366.161 549.425 366.709 549.225C367.251 549.028 367.858 549.147 368.635 549.047C369.163 548.979 369.661 548.896 370.014 548.581C370.204 548.411 370.269 548.146 370.42 547.978C371.067 547.257 373.073 547.973 373.569 547.941C374.017 547.913 374.325 547.414 374.692 547.061C375.135 546.635 375.857 546.424 376.38 546.218C376.825 546.043 377.292 545.867 377.76 545.712C378.283 545.539 378.692 545.218 379.169 544.891C379.597 544.596 379.778 544.082 379.953 543.653C380.17 543.119 380.109 542.401 379.952 541.953C379.688 541.2 379.516 540.252 379.698 539.729C379.84 539.512 380.002 539.228 380.153 538.911C380.221 538.769 380.272 538.667 380.377 538.516M410.895 512.074C410.874 512.216 410.745 512.668 410.538 513.612C410.265 514.847 410.454 515.169 410.537 515.648C410.576 515.876 410.579 516.051 410.671 516.149C410.897 516.387 411.395 516.079 411.717 516.015C412.051 515.949 412.446 516.071 412.76 516.176C413.109 516.293 413.118 516.64 413.128 516.792C413.154 517.22 412.481 517.492 412.206 517.612C411.766 517.805 411.005 517.691 410.475 517.666C410.119 517.65 409.704 517.874 409.208 518.126C408.579 518.445 407.793 519.021 406.436 519.991C405.273 520.822 404.985 520.908 404.542 520.974C404.111 521.039 403.32 521.308 402.475 521.826C402.039 522.092 401.806 522.366 401.743 522.516C401.63 522.781 401.978 523.094 402.128 523.407C402.278 523.721 402.193 524.533 402.114 525.105L402.113 525.109C402.102 525.191 402.091 525.273 402.046 525.347C401.737 525.854 400.944 526.124 400.645 526.196C400.118 526.322 399.392 526.366 399.096 526.255C398.813 526.149 398.499 526.057 398.217 525.96C397.784 525.811 396.54 525.761 395.915 525.785C395.606 525.797 395.332 525.99 394.87 526.213C394.395 526.442 394.061 526.639 393.976 526.781C393.779 527.111 393.686 527.396 393.517 527.738C393.288 528.201 393.252 529.188 393.169 529.689C393.099 530.115 392.883 530.552 392.408 531.186C391.695 532.138 390.39 533.211 390.101 533.791C389.898 534.199 389.84 534.607 389.593 534.8C389.319 535.015 388.266 535.403 387.098 535.926C385.687 536.558 385.288 536.672 384.937 536.921C384.656 537.121 384.226 537.333 383.83 537.51C383.371 537.715 382.576 537.861 382.068 538.049C381.75 538.162 381.353 538.324 380.977 538.478C380.825 538.537 380.751 538.555 380.525 538.592M410.784 512.012C410.663 512.026 410.304 512.073 409.97 512.082C409.585 512.091 409.262 512.221 408.915 512.299C408.587 512.372 408.442 512.958 408.23 513.253C408.042 513.516 407.607 513.28 407.315 513.193C407.005 513.102 406.69 512.99 406.23 512.79C405.749 512.58 405.571 512.307 405.417 511.966C405.261 511.62 404.896 511.558 404.577 511.478C403.945 511.32 402.941 511.256 402.703 511.068C402.588 510.978 402.613 510.798 402.641 510.65C402.669 510.492 402.8 510.311 402.934 510.118C403.12 509.85 403.452 509.873 403.603 509.842C404.031 509.755 403.778 508.812 403.669 508.465C403.644 508.384 403.666 508.312 403.708 508.269C403.893 508.077 404.251 508.263 404.522 508.375C404.83 508.503 404.995 508.891 405.386 509.094C406.069 509.449 406.723 509.857 407.024 510.033C407.283 510.184 407.578 510.321 407.956 510.423C408.093 510.46 408.291 510.469 408.411 510.442C408.531 510.416 408.571 510.339 408.6 510.202C408.738 509.565 408.527 509.138 408.577 508.843C408.601 508.706 408.835 508.706 409.01 508.701C409.537 508.685 410.38 509.497 411.837 510.79C412.344 511.241 412.801 511.357 413.156 511.524C413.455 511.664 413.772 511.807 414.082 511.936C414.39 512.063 414.773 512.268 415.072 512.389C415.451 512.543 416.039 512.393 416.374 512.227C416.945 511.944 417.277 511.803 417.992 511.834C418.426 511.853 418.735 511.804 420.133 511.934C420.745 511.991 421.103 512.208 421.357 512.361L421.36 512.363C421.637 512.531 421.487 513.027 421.381 513.312C421.269 513.615 421.051 513.856 420.908 514.124C420.834 514.263 420.821 514.415 420.872 514.56C420.968 514.837 421.309 514.973 421.526 515.192C421.638 515.306 421.791 515.385 421.996 515.399C422.458 515.429 422.997 515.118 423.432 514.914C423.75 514.657 423.965 514.469 424.113 514.281C424.174 514.195 424.207 514.128 424.243 514.042M418.943 483.521C418.938 483.641 418.964 484.123 419.031 484.537C419.119 485.094 418.991 485.891 419.052 486.267C419.126 486.728 419.617 487.065 419.763 487.141C420.077 487.305 420.45 486.965 420.765 486.711C421.028 486.5 421.068 485.991 421.264 485.609C421.503 485.14 422.075 484.908 422.32 484.582C422.549 484.276 423.706 484.214 424.505 484.068C425.27 483.928 425.751 483.668 426.197 483.709C426.646 483.749 426.901 484.2 427.212 484.36C427.293 484.401 427.371 484.453 427.427 484.522C427.699 484.858 427.448 485.455 427.345 485.821C427.284 486.036 427.371 486.246 427.403 486.399C427.474 486.742 428.051 486.772 428.415 486.891C428.787 487.013 428.844 487.551 428.882 487.994C428.917 488.395 428.854 488.706 428.958 488.827C429.068 488.955 429.283 488.943 429.487 488.897C429.882 488.807 430.001 488.373 430.145 488.124C430.296 487.864 430.626 488.617 430.75 488.995C430.85 489.302 430.915 489.63 430.915 489.975C430.914 490.328 430.613 491.118 430.393 491.892C430.357 492.021 430.352 492.112 430.371 492.19C430.391 492.268 430.445 492.333 430.513 492.374C430.802 492.545 431.18 492.576 431.642 492.708C432.684 493.005 433.21 493.319 433.56 493.623C433.994 494 434.146 494.484 434.21 494.887C434.275 495.299 434.135 495.627 434.083 495.995C434.041 496.295 433.78 496.49 433.716 496.654C433.603 496.94 433.976 497.276 434.048 497.627C434.14 498.078 433.685 498.54 433.594 498.881C433.505 499.214 433.552 499.573 433.518 500.252C433.484 500.927 433.288 501.29 433.215 501.932C433.151 502.496 433.243 502.849 433.275 503.199C433.309 503.584 433.123 504.196 432.978 504.669C432.871 505.018 432.717 505.615 432.559 506.102C432.351 506.745 431.521 506.739 431.07 506.877C430.788 506.963 430.523 507.024 430.344 507.127C429.983 507.335 429.938 508.195 429.758 508.702C429.629 509.066 429.156 509.187 428.564 509.413C428.359 509.492 428.239 509.642 428.101 509.796C427.706 510.238 427.718 511.006 427.436 511.508C427.225 511.883 426.833 512.097 426.528 512.378C426.271 512.615 425.799 512.782 425.494 513.029C425.24 513.235 424.97 513.483 424.643 513.692C424.553 513.741 424.454 513.791 424.374 513.843C424.293 513.896 424.233 513.95 424.1 513.981M404.551 459.082C404.668 459.123 404.993 459.266 405.458 459.528C405.918 459.786 406.838 460.38 407.684 460.767C408.474 461.128 408.82 461.498 409.017 461.826C409.241 462.199 409.452 462.494 409.545 462.823C409.596 463.007 409.684 463.181 409.739 463.352C409.873 463.764 409.432 464.247 409.259 464.604C409.005 465.126 408.849 465.496 408.8 465.844C408.746 466.229 409.572 466.525 410.114 466.774C410.508 466.955 410.846 467.006 411.109 467.194C411.382 467.39 411.538 467.71 411.626 468.032C411.672 468.203 411.7 468.382 411.806 468.541C412.051 468.907 412.526 468.96 412.856 468.996C413.042 469.016 413.13 468.745 413.196 468.584C413.262 468.424 413.267 468.252 413.214 468.091C413.084 467.697 412.711 467.245 412.568 466.892C412.44 466.579 412.114 466.314 411.854 466.018C411.796 465.952 411.804 465.86 411.823 465.781C411.863 465.619 412.029 465.506 412.209 465.423C412.739 465.179 413.9 465.418 414.422 465.526C414.515 465.545 414.599 465.618 414.652 465.685C414.861 465.943 414.621 466.395 414.65 466.738C414.683 467.122 415.089 467.187 415.267 467.211C415.822 467.283 416.119 466.876 416.438 466.737C416.774 466.591 417.11 466.522 417.416 466.636C417.801 466.779 417.95 467.289 417.984 467.65C418.023 468.058 417.534 468.326 417.328 468.643C417.1 468.996 417.249 469.402 417.41 469.683C417.573 469.968 417.994 469.809 418.177 469.866C418.476 469.96 418.565 470.306 418.582 470.516C418.637 471.176 418.332 471.951 418.293 472.712C418.273 473.081 418.619 473.313 418.919 473.544C419.217 473.771 419.505 474.099 419.816 474.344C420.234 474.674 420.638 475.118 420.747 475.528C420.769 475.609 420.711 475.687 420.657 475.741C420.38 476.02 419.869 476.107 419.598 476.227C419.26 476.375 419.435 476.94 419.533 477.417C419.575 477.618 419.513 477.805 419.416 477.977C419.251 478.273 418.862 478.486 418.617 478.778C418.3 479.158 418.425 479.883 418.462 480.25C418.498 480.594 418.738 480.891 418.843 481.341C418.933 481.723 418.772 482.094 418.728 482.454C418.796 482.618 418.887 482.766 418.958 482.912C418.988 482.988 419.004 483.067 418.988 483.291M404.436 458.884C404.448 458.757 404.485 458.368 404.779 458.039C405.054 457.731 405.412 457.698 405.932 457.715C407.017 457.749 408.531 458.077 409.046 458.22C409.389 458.315 409.747 458.406 410.073 458.497C410.424 458.595 410.742 458.696 411.069 458.77C411.154 458.789 411.246 458.775 411.306 458.731C411.365 458.688 411.391 458.606 411.39 458.522C411.386 458.188 411.143 457.886 410.897 457.582C410.593 457.206 410.308 456.748 410.219 456.427C410.084 455.939 410.264 455.33 410.319 454.717C410.364 454.223 410.754 453.896 410.912 453.601C411.066 453.312 411.48 453.283 411.912 453.229C412.317 453.178 412.628 453.047 412.766 452.897C413.13 452.507 413.12 452.037 413.186 451.662C413.251 451.292 413.203 450.879 413.239 450.433C413.274 450.005 413.555 449.523 413.762 449.112C413.967 448.707 414.12 447.796 414.205 447.139C414.267 446.672 414.131 446.299 414.145 445.8C414.167 445.062 414.315 444.656 414.39 444.275C414.458 443.933 414.545 443.347 414.618 442.739C414.665 442.352 414.564 441.886 414.58 441.414C414.604 440.694 414.869 439.729 415.106 439.389C415.381 438.993 415.565 438.66 415.67 438.309C415.722 438.135 415.791 437.945 415.915 437.783C416.131 437.5 416.536 437.592 416.683 437.549C416.844 437.502 416.899 437.139 416.935 436.736C416.987 436.159 416.424 435.464 416.015 435.058C415.768 434.812 415.373 434.839 414.801 434.318C414.301 433.862 414.091 433.249 414.036 432.873C413.974 432.453 414.295 432.093 414.631 431.684C414.866 431.399 415.28 431.27 415.684 431.184C416.123 431.091 416.456 431.078 416.902 430.982C417.289 430.898 418.123 431.373 418.752 431.754C419.094 431.961 419.657 432.195 420.523 432.478C420.937 432.613 421.3 432.609 421.815 432.639C422.027 432.651 422.228 432.651 422.431 432.697C422.91 432.807 423.141 433.565 423.272 433.956C423.389 434.304 423.458 434.674 423.562 435.016C423.659 435.336 423.937 435.575 424.225 435.824L424.23 435.827C424.515 436.073 424.88 436.511 425.227 436.899C425.493 437.196 425.447 438.059 425.206 439.072C425.045 439.748 424.84 440.058 424.583 440.321C424.466 440.441 424.324 440.557 424.2 440.717C423.879 441.129 424.069 441.862 424.237 442.216C424.281 442.308 424.359 442.4 424.445 442.455C424.785 442.672 425.293 442.524 425.878 442.556C426.738 442.602 427.115 442.709 428.219 442.638C429.063 442.584 429.594 442.442 429.97 442.426C430.329 442.411 430.77 442.038 431.099 441.757C431.48 441.431 431.882 441.081 432.371 440.8C432.736 440.591 433.173 440.493 433.49 440.361C433.572 440.329 433.659 440.3 433.743 440.284C433.827 440.267 433.906 440.262 434.007 440.241M472.767 419.141C472.676 419.179 472.345 419.159 471.661 419.035C471.406 418.989 471.249 418.857 471.081 418.795C470.723 418.663 470.225 418.962 469.616 418.924C469.174 418.896 468.849 418.595 468.517 418.478C468.017 418.302 467.766 417.777 467.51 417.564C467.185 417.294 466.369 417.784 465.893 417.981C465.581 418.109 465.139 417.851 464.703 417.661C464.36 417.511 464.021 417.41 463.673 417.487C463.177 417.596 462.795 418.05 462.334 418.235C461.982 418.377 461.577 418.321 461.259 418.546C460.883 418.812 460.581 418.937 460.431 419.226C460.249 419.578 460.323 420.051 460.308 420.459C460.293 420.858 460.469 421.381 460.54 421.778C460.606 422.15 460.182 422.445 459.821 422.766C459.532 423.023 459.21 423.399 458.923 423.775C458.696 424.073 458.447 424.422 458.214 424.894C457.765 425.801 457.087 426.332 456.749 426.589C456.293 426.936 455.767 427.392 455.509 427.666C455.189 428.006 454.899 428.442 454.619 428.915C454.381 429.317 454.29 430.054 454.075 430.586C453.915 430.982 453.392 431.27 453.194 431.626C453.028 431.924 452.585 431.931 452.233 432.061C451.896 432.186 451.682 432.648 451.059 433.401C450.733 433.794 450.32 434.137 449.981 434.453C449.704 434.709 449.491 434.994 449.128 435.482C448.767 435.965 448.641 436.349 448.309 436.616C447.979 436.881 447.706 437.194 447.317 437.379C446.816 437.619 446.316 437.793 445.971 437.968C445.627 438.142 445.223 438.35 444.906 438.424C444.591 438.497 444.16 438.456 443.763 438.477C443.39 438.497 443.049 438.688 442.72 438.755C442.375 438.825 442.135 439.08 442 439.392C441.848 439.74 441.627 440.063 441.291 440.511C441.019 440.875 440.887 441.085 440.783 441.176C440.487 441.433 439.908 440.738 439.435 440.367C438.724 439.81 437.863 439.8 437.338 439.842C436.905 439.877 436.535 440.027 436.174 440.061C435.794 440.096 435.337 440.053 434.869 440.081C434.47 440.065 434.121 440.065 433.876 440.091C433.743 440.102 433.592 440.108 433.254 440.133M485.34 397.214C485.349 397.281 485.448 397.497 485.806 397.801C486.135 398.08 486.798 398.392 487.585 398.8C488.704 399.38 489.362 399.76 489.855 399.886C490.44 400.035 490.921 399.873 491.991 399.818C492.864 399.774 493.222 399.979 493.78 400.217C494.999 400.739 495.294 401.126 495.793 401.48C496.069 401.676 496.276 401.87 496.643 402.219C496.963 402.522 497.082 402.732 497.177 403.167C497.272 403.604 497.155 403.933 497.019 404.2C496.824 404.587 496.586 404.76 496.348 405.028C496.153 405.249 495.859 405.365 495.617 405.515C495.426 405.634 495.156 405.645 494.461 405.72C493.965 405.774 493.184 405.648 491.996 405.585C490.707 405.516 490.48 405.755 489.993 405.748C488.702 405.73 488.233 405.381 487.686 405.046C487.417 404.882 486.926 404.667 486.291 404.444C485.497 404.166 484.74 404.065 484.138 403.859C483.811 403.747 483.631 403.582 483.308 403.5C482.964 403.414 482.721 403.217 482.472 403.054C482.351 402.975 482.23 402.96 482.134 402.988C481.923 403.051 481.648 403.517 481.456 404.53C481.379 404.934 481.51 405.332 481.571 405.737C481.583 405.815 481.612 405.866 481.656 405.909C481.847 406.092 482.194 406.067 482.644 406.123C482.741 406.134 482.794 406.143 482.833 406.171C483.134 406.392 482.847 407.133 482.798 407.521C482.759 407.834 482.694 408.177 482.585 408.514C482.372 409.172 482.269 409.514 482.189 409.811C482.123 410.056 482.019 410.442 481.851 411.073C481.725 411.55 481.756 412.043 481.632 412.656C481.48 413.407 481.354 413.745 481.259 414.649C481.201 415.215 481.181 415.622 481.052 415.874C480.817 416.333 480.255 416.7 479.89 416.985C479.683 417.146 479.202 417.314 478.334 417.659C477.128 418.14 476.31 418.311 476.178 418.33C475.951 418.364 475.693 418.52 475.366 418.685C475.097 418.819 474.309 418.809 473.739 418.806C473.426 418.871 473.224 418.933 473.139 418.926C473.108 418.902 473.098 418.833 473.089 418.763M485.456 397.078C485.434 396.981 485.482 396.686 485.58 396.436C485.683 396.175 485.966 395.961 486.183 395.771C486.4 395.579 486.741 395.527 487.317 395.163C488.04 394.705 488.471 394.706 488.811 394.671C489.194 394.631 489.794 394.232 490.139 394.045C490.189 394.017 490.207 393.952 490.22 393.899C490.245 393.796 490.148 393.667 489.976 393.426C489.785 393.158 489.869 392.889 489.819 392.451C489.77 392.025 489.784 391.51 489.735 391.137C489.692 390.817 489.475 390.421 489.3 390.165C489.169 389.973 489.133 389.8 489.096 389.702C488.978 389.388 489.78 389.046 490.058 388.916C490.16 388.869 490.273 388.836 490.376 388.773C490.479 388.71 490.536 388.603 490.548 388.5C490.573 388.27 490.194 388.195 489.801 387.805C489.505 387.511 489.388 387.093 489.309 386.633C489.177 385.866 489.795 384.953 489.902 384.698C490.089 384.249 490.444 383.805 490.596 383.467C490.925 382.738 491.169 382.615 491.398 382.476C491.669 382.31 492.46 382.098 492.944 381.997C493.229 381.937 493.699 381.957 494.096 381.902C494.424 381.857 495.019 381.724 495.559 381.499C495.893 381.359 496.097 381.246 496.663 380.96C497.086 380.746 497.413 380.637 498.255 380.359C498.681 380.219 499.297 379.998 499.872 379.67C500.133 379.521 500.239 379.231 500.496 378.979C500.919 378.564 501.043 378.227 501.241 377.758C501.305 377.592 501.379 377.381 501.424 377.205C501.469 377.028 501.482 376.893 501.496 376.753M515.962 354.145C515.857 354.21 515.464 354.362 514.944 354.378C514.717 354.386 514.466 354.474 514.216 354.609C514.103 354.669 514.065 354.784 514.041 354.875C513.943 355.255 514.195 355.736 514.169 356.152C514.163 356.247 514.112 356.318 514.058 356.375C513.848 356.601 513.254 356.512 512.818 356.537C512.73 356.542 512.646 356.596 512.588 356.657C512.336 356.924 512.321 357.376 512.188 358.599C512.142 359.025 512.156 359.244 512.072 359.367C512.032 359.428 511.946 359.446 511.857 359.448C511.321 359.46 510.811 358.878 510.407 358.415C510.222 358.203 510.225 357.95 510.145 357.8C509.995 357.515 509.45 357.557 509.03 357.478C508.296 357.338 507.212 356.907 506.873 356.613C506.616 356.392 506.411 356.133 506.111 356.026C505.951 355.968 505.774 355.966 505.594 355.837C505.018 355.425 504.963 354.685 504.769 354.201C504.573 353.709 504.202 353.458 504.086 353.348C503.856 353.129 503.451 353.331 503.108 353.412C502.328 353.596 501.36 354.691 500.69 355.5C500.408 355.84 500.107 356 499.485 356.289C498.59 356.706 498.297 356.871 497.934 357.094C497.604 357.298 497.167 357.449 496.742 357.733C496.324 358.012 495.953 358.371 495.681 358.652C495.424 358.916 495.362 359.673 495.44 360.285C495.509 360.822 495.621 361.234 495.879 361.636C496.08 361.947 496.423 362.134 496.796 362.322C497.129 362.49 497.526 362.693 498.25 363.018C498.891 363.306 499.698 363.586 499.914 363.9C500.161 364.256 500.27 364.616 500.556 364.922C500.956 365.352 501.226 365.745 501.386 366.19C501.663 366.963 501.803 368.178 501.813 368.956C501.819 369.392 501.789 369.865 501.707 370.755C501.641 371.466 501.471 372.186 501.471 372.841C501.47 373.678 501.424 374.465 501.403 375.314C501.369 375.851 501.323 376.213 501.279 376.363C501.262 376.44 501.254 376.52 501.256 376.499M516.063 354.168C516.15 354.117 516.434 353.933 516.68 353.72C516.932 353.502 517.167 353.17 517.49 353.045C517.64 352.987 517.708 352.82 517.741 352.659C517.816 352.3 517.719 351.946 517.711 351.592C517.703 351.241 517.428 350.931 516.937 350.158C516.635 349.683 515.955 349.075 515.287 348.372C514.11 347.133 513.696 346.191 513.509 345.763L513.498 345.74C513.354 345.411 513.503 344.566 513.521 343.828C513.54 343.027 513.792 342.58 514.018 342.212C514.2 341.917 514.653 341.966 515.047 341.928C515.476 341.886 515.907 341.767 516.43 341.739C516.545 341.733 516.642 341.747 516.705 341.711C516.979 341.556 516.851 341.047 517.014 340.726C517.227 340.307 517.616 340.197 518.074 339.988C518.41 339.835 518.459 339.303 518.597 338.763C518.72 338.281 518.581 337.879 518.276 337.429C518.02 337.05 517.759 336.814 517.534 336.451C517.478 336.361 517.438 336.275 517.422 336.185C517.351 335.767 517.873 335.297 518.115 334.978C518.214 334.847 518.305 334.719 518.431 334.621C518.793 334.34 519.508 334.522 519.807 334.34C519.879 334.296 519.923 334.225 519.948 334.147C520.053 333.82 519.9 333.498 519.907 333.137C519.91 332.969 520.04 332.843 520.169 332.743C520.481 332.499 521.039 332.59 521.402 332.481C521.77 332.37 521.837 331.844 522.023 331.495C522.317 330.944 522.37 330.587 522.707 330.283C522.971 330.044 523.049 329.575 523.141 329.129C523.214 328.771 523.306 328.464 523.451 328.141C523.623 327.759 523.863 327.488 524.089 327.147C524.356 326.744 524.361 326.305 524.364 325.949C524.368 325.554 523.905 325.183 523.569 324.733C523.303 324.377 522.801 323.944 522.398 323.515C522.156 323.256 521.81 323.104 521.45 322.818C520.818 322.315 520.55 322.018 520.261 321.755C519.893 321.421 519.791 321.1 519.673 320.769C519.654 320.563 519.658 320.312 519.695 320.077C519.727 319.98 519.785 319.926 519.864 319.837M520.155 319.775L520.162 319.775C520.223 319.77 520.397 319.756 520.629 319.77C520.884 319.785 521.089 319.783 521.178 319.739C521.379 319.639 521.523 319.39 521.614 319.223C521.753 318.968 521.696 318.605 521.698 318.422C521.701 318.234 521.958 318.172 522.116 318.058C522.324 317.908 522.59 317.785 522.798 317.645C523.001 317.508 523.125 317.268 523.22 317.07C523.303 316.894 523.462 316.758 523.628 316.617C523.781 316.488 524.124 316.415 524.375 316.354C524.554 316.311 524.72 316.197 524.894 316.072C525.052 315.959 525.169 315.796 525.331 315.426C525.442 315.173 525.559 314.826 525.615 314.535C525.679 314.202 525.75 313.768 525.872 313.612C526.012 313.434 526.485 313.182 526.991 312.726C527.11 312.618 527.151 312.532 527.181 312.447C527.267 312.204 527.099 311.838 526.99 311.554C526.921 311.376 526.822 311.246 526.75 311.181C526.6 311.045 526.296 311.249 526.111 311.382C525.83 311.582 525.615 312.123 525.172 312.565C524.978 312.758 524.761 312.918 524.419 313.134C524.245 313.244 524.081 313.247 523.984 313.258C523.885 313.268 523.758 313.207 523.617 313.1C523.353 312.902 523.246 312.338 523.099 311.997C523.033 311.845 522.893 311.777 522.839 311.713C522.708 311.56 522.877 311.295 522.97 311.106C523.095 310.85 523.283 310.68 523.398 310.511C523.526 310.321 523.544 310.107 523.566 309.836L523.567 309.821C523.572 309.766 523.511 309.748 523.459 309.737C523.182 309.681 522.802 309.865 522.585 309.974C522.393 310.071 522.122 310.269 521.803 310.454C521.561 310.594 521.239 310.646 521.053 310.66C520.837 310.677 520.716 310.275 520.47 309.955C520.302 309.737 520.143 309.607 519.936 309.529C519.565 309.39 518.778 309.236 518.462 309.18L518.457 309.179C518.364 309.163 518.277 309.148 518.185 309.162C517.916 309.202 517.667 309.461 517.489 309.55C517.245 309.672 517.028 309.827 516.694 310.041C516.453 310.195 516.234 310.166 516.071 310.087C515.985 310.044 515.943 309.933 515.888 309.845C515.768 309.654 516.042 309.278 516.387 308.827C516.547 308.618 516.92 308.34 517.33 307.984C517.555 307.788 517.886 307.671 518.078 307.668C518.606 307.659 519.266 308.725 519.715 308.999C519.786 309.043 519.839 309.039 519.883 309.034C519.97 309.025 520.038 308.958 520.097 308.871C520.247 308.647 520.214 308.375 520.241 308.191C520.276 307.949 520.074 307.638 519.967 307.155C519.915 306.916 519.734 306.798 519.511 306.671C519.348 306.578 519.217 306.506 519.171 306.424C518.988 306.105 519.243 305.412 519.329 305.161C519.393 304.978 519.428 304.767 519.479 304.523C519.511 304.372 519.514 304.243 519.49 304.163C519.478 304.123 519.442 304.093 519.401 304.074C519.203 303.985 518.912 304.077 518.667 304.091C518.471 304.103 518.262 304.241 517.857 304.43C517.187 304.743 516.751 305.153 516.494 305.281C516.035 305.51 515.711 305.619 515.632 305.615C515.317 305.598 515.295 304.688 515.18 304.44C515.087 304.239 515.034 304.002 514.97 303.78C514.916 303.592 514.934 303.398 514.933 303.188C514.932 302.908 515.021 302.729 515.208 302.239C515.538 301.64 515.791 301.33 515.976 301.131C516.019 301.099 516.062 301.09 516.105 301.09M516.251 300.965C516.308 300.905 516.469 300.727 516.619 300.512C516.748 300.328 516.673 300.06 516.677 299.868C516.681 299.61 517.109 299.448 517.331 299.301C517.486 299.199 517.829 299.111 518.229 299.061C518.568 299.02 518.882 299.329 519.129 299.508C519.236 299.586 519.393 299.604 519.545 299.599C519.981 299.588 520.533 299.183 520.994 298.978C521.349 298.821 522.017 298.734 522.839 298.595C523.32 298.514 523.749 298.421 524.107 298.354C524.55 298.272 524.902 298.185 525.302 298.154L525.433 298.144C526.612 298.053 526.879 298.033 527.287 298.022C527.923 298.004 528.34 298.097 528.555 298.084C528.852 298.065 529.247 298.147 529.457 298.159C529.695 298.173 529.98 297.929 530.232 297.846C530.707 297.69 531.163 297.469 531.486 297.231C531.829 296.979 532.144 296.895 532.352 296.723C532.679 296.454 532.742 296.229 532.868 295.99C532.987 295.763 532.977 295.521 533.01 295.307C533.046 295.073 533.132 294.853 533.397 294.421C533.859 293.667 534.4 293.189 534.637 293.034C534.859 292.89 535.015 292.744 535.178 292.621C535.459 292.41 535.737 292.363 535.853 292.216C535.992 292.039 535.826 291.056 535.689 290.311C535.633 290.012 535.274 289.476 535.002 289.008C534.846 288.741 534.698 288.324 534.612 287.89C534.495 287.299 534.693 286.277 534.702 285.835C534.706 285.651 534.572 285.468 534.36 285.254C534.125 285.015 534.011 284.76 533.713 284.462C533.377 284.125 533.351 283.832 533.169 283.338C532.961 282.77 532.878 282.216 532.825 282.156C532.704 282.017 532.241 282.239 531.428 282.336C531.271 282.354 531.209 282.342 531.165 282.317C530.985 282.213 530.948 281.914 530.832 281.635C530.691 281.299 530.621 281.064 530.526 280.857C530.411 280.607 530.43 280.175 530.397 279.854C530.375 279.637 530.239 279.496 530.072 279.374C529.857 279.214 529.545 278.964 529.304 278.678C529.149 278.553 528.994 278.446 528.866 278.341C528.809 278.297 528.768 278.27 528.687 278.228M500.141 213.225C500.128 213.36 500.129 213.832 500.196 214.382C500.255 214.866 500.338 215.451 500.481 216.046C500.579 216.45 501.145 216.586 501.408 217.196C501.639 217.731 501.981 218.038 502.393 218.329C503.138 218.853 504.232 219.898 504.864 220.417C504.975 220.508 505.075 220.553 505.172 220.511C505.694 220.282 505.638 219.572 505.857 219.174C505.913 219.071 505.999 218.986 506.09 218.947C506.18 218.908 506.286 218.925 506.375 218.98C506.769 219.226 506.946 219.741 507.182 220.153C507.452 220.624 507.6 221.099 507.744 221.843C507.8 222.132 507.753 222.372 507.649 222.618C507.417 223.167 506.926 223.486 506.734 223.957C506.507 224.516 506.483 225.35 506.593 226.24C506.697 227.071 506.604 227.891 506.506 228.327C506.407 228.767 506.282 229.239 506.246 229.816C506.207 230.445 506.754 230.983 507.108 231.402C507.516 231.883 507.553 232.493 507.621 232.977C507.702 233.555 507.769 234.126 508.034 234.951C508.212 235.508 508.545 235.86 508.743 236.257C508.933 236.638 508.863 237.297 508.998 237.819C509.119 238.29 509.187 238.861 509.085 239.456C508.982 240.063 508.193 240.946 507.789 241.723C507.469 242.336 507.286 243.141 507.208 243.935C507.101 245.012 507.957 245.58 508.448 246.345C508.827 246.934 509.062 247.51 509.397 248.25C509.624 248.752 510.082 249.321 510.362 249.876C510.594 250.336 511.089 250.58 511.747 250.904L511.766 250.914C512.25 251.153 512.4 251.684 512.636 252.155C512.864 252.612 513.103 253.157 513.384 253.608C513.677 254.078 514.306 254.009 514.666 254.28C515.241 254.713 515.697 255.729 516.084 256.206C516.501 256.722 516.847 257.197 517.215 257.934C517.454 258.413 517.536 258.938 517.706 259.521C517.883 260.129 518.132 260.487 518.422 260.822C518.791 261.249 519.179 261.503 519.541 261.769C519.964 262.079 520.431 262.35 520.883 262.542C521.443 262.781 521.892 262.871 522.268 263.239C522.7 263.662 522.427 264.523 522.51 264.989C522.612 265.555 522.987 266.068 523.202 266.497C523.482 267.055 523.89 267.734 524.279 268.679C524.537 269.309 524.732 269.949 524.853 270.544C524.989 271.209 525.123 271.861 525.391 272.669C525.573 273.216 525.765 273.675 526.049 273.997C526.331 274.317 526.849 274.305 527.461 274.643C527.972 274.925 528.265 275.39 528.389 275.586L528.4 275.603C528.703 276.082 528.484 276.592 528.457 277.05C528.44 277.162 528.416 277.262 528.392 277.363C528.367 277.463 528.342 277.563 528.281 277.778M485.547 198.004C485.502 198.086 485.353 198.265 485.241 198.465C485.128 198.664 485.033 198.882 484.999 199.182C484.957 199.557 485.018 199.892 485.051 200.173C485.081 200.426 485.109 200.668 485.218 200.978C485.312 201.246 485.332 201.481 485.398 201.709C485.463 201.935 485.455 202.203 485.514 202.463C485.586 202.782 485.665 203.251 485.711 203.579C485.742 203.807 485.633 204.042 485.518 204.207C485.369 204.421 485.005 204.393 484.388 204.322C483.403 204.209 483.264 204.023 483.181 203.957C483.01 203.819 482.636 204.317 482.372 204.563C482.275 204.653 482.179 204.733 482.056 204.77C481.731 204.868 481.429 204.69 481.167 204.592C481.11 204.57 481.068 204.533 481.001 204.541C480.677 204.583 480.468 204.854 480.164 204.968C479.857 205.083 479.501 205.124 479.053 205.365C478.532 205.646 478.42 205.96 478.294 206.189C478.221 206.321 478.172 206.438 478.2 206.548C478.288 206.894 478.909 207.219 479.152 207.434C479.381 207.638 479.625 207.796 479.932 207.951C480.152 208.062 480.225 208.469 480.255 208.818C480.304 209.379 480.162 209.724 480.178 210.015C480.192 210.244 480.335 210.576 480.477 210.857C480.55 211.003 480.63 211.125 480.718 211.17C480.918 211.271 481.344 210.711 481.748 210.475C482.255 210.179 482.649 210.26 482.959 210.265C483.272 210.27 483.319 210.904 483.371 211.272C483.422 211.632 483.281 212.016 483.152 212.321C483.05 212.564 482.993 212.867 482.84 213.255C482.724 213.551 482.461 213.819 482.381 214.051C482.271 214.374 482.603 214.7 482.815 214.921C483.159 215.279 483.571 215.511 483.833 215.676C483.943 215.746 483.975 215.904 484.046 216.02C484.184 216.249 484.67 216.205 485.035 216.18C485.382 216.157 485.784 216.25 486.366 216.314C486.488 216.327 486.536 216.283 486.564 216.231C486.764 215.864 486.319 214.687 486.056 214.081C485.877 213.67 485.658 213.336 485.541 213.076C485.439 212.848 485.218 212.566 485.096 212.292C485.044 212.175 485.052 212.051 485.067 211.95C485.101 211.716 485.451 211.481 485.708 211.275C485.814 211.19 485.941 211.171 486.051 211.173C486.308 211.18 486.464 211.517 486.899 212.165C487.484 213.036 487.986 213.256 488.484 213.732C488.98 214.205 489.45 214.447 489.68 214.54C489.797 214.587 489.822 214.775 489.844 214.962C489.909 215.497 489.618 215.953 489.659 216.087C489.842 216.698 490.887 217.06 491.24 217.36C491.491 217.574 491.718 217.758 491.858 217.955C492.04 218.212 492.443 218.459 492.7 218.588C492.927 218.702 493.074 218.82 493.176 218.841C493.427 218.894 493.407 218.228 493.455 217.831C493.494 217.508 493.342 217.211 493.103 216.613C492.96 216.254 492.72 216.037 492.657 215.747C492.606 215.514 492.818 215.271 492.88 214.798C492.922 214.48 492.768 214.111 492.631 213.717C492.514 213.384 492.089 212.713 491.821 212.166C491.601 211.718 491.057 211.19 490.567 210.766C490.238 210.481 490.08 210.12 490.009 209.898C489.919 209.615 490.336 209.284 490.433 209.122C490.474 209.054 490.535 209.042 490.651 209.061C491.39 209.181 491.976 209.564 492.223 209.681C492.502 209.812 492.948 209.483 493.24 209.444C493.57 209.401 493.814 209.629 494.158 209.885C494.381 210.05 494.551 210.34 494.921 210.606C495.317 210.89 495.612 210.946 496.047 211.054C496.63 211.199 497.003 210.997 497.307 210.98C497.557 210.966 497.886 211.086 498.166 211.152C498.415 211.21 498.615 211.328 498.869 211.479C499.145 211.643 499.537 212.2 499.856 212.512C499.979 212.631 500.078 212.733 500.14 212.822C500.169 212.871 500.19 212.925 500.28 213.036M491.752 182.353C491.754 182.496 491.792 182.882 491.911 183.3C492.044 183.771 492.256 183.982 492.438 184.214C492.641 184.473 492.777 184.814 492.797 185.167C492.822 185.588 492.725 185.912 492.708 186.05C492.665 186.393 492.055 186.507 491.655 186.621C491.387 186.697 491.105 186.856 490.973 187.058C490.797 187.327 490.58 187.581 490.385 187.866C490.057 188.345 489.924 188.815 489.751 189.058C489.598 189.274 489.408 189.512 489.235 189.721C489.149 189.824 489.109 189.948 489.046 190.038C488.977 190.136 488.753 190.129 488.369 190.069C487.777 189.977 486.991 189.665 486.298 189.349C485.864 189.151 485.518 188.929 485.233 188.79C484.95 188.654 484.581 188.574 484.253 188.544C483.905 188.512 483.634 188.767 483.091 188.937C482.441 189.14 482.186 189.264 481.935 189.456C481.492 189.795 480.456 189.766 479.647 189.631C479.5 189.607 479.426 189.587 479.368 189.615C479.11 189.742 479.129 190.226 478.83 191.326C478.723 191.721 478.767 191.924 478.833 192.012C478.967 192.189 479.259 192.185 479.727 192.24C480.026 192.276 480.29 192.404 480.517 192.588C480.947 192.938 481.321 193.631 481.577 194.057C481.668 194.207 481.676 194.355 481.657 194.464C481.6 194.792 481.044 194.789 480.626 194.948C480.34 195.056 480.076 195.17 479.76 195.163C479.293 195.153 478.534 195.179 478.073 195.193C477.425 195.213 477.164 195.08 476.941 194.992C476.668 194.885 476.518 194.645 476.167 194.262C476.091 194.178 476.012 194.191 475.948 194.204C475.691 194.253 475.452 194.399 475.115 194.527C474.69 194.689 474.225 194.733 473.997 194.844C473.737 194.971 473.569 195.125 472.617 195.499C472.199 195.664 471.922 195.679 471.476 195.648C471.029 195.617 470.497 195.444 470.114 195.382C469.37 195.26 468.663 195.441 468.451 195.561C468.339 195.624 468.295 195.778 468.291 195.929C468.289 195.996 468.326 196.043 468.366 196.082C468.541 196.254 468.827 196.295 469.093 196.425C469.32 196.535 469.482 196.731 469.996 196.926C470.797 197.229 471.471 197.208 471.795 197.293C472.335 197.435 472.865 197.246 473.043 197.228C473.273 197.206 473.193 197.732 473.345 197.897C473.571 198.143 474.587 197.95 475.122 197.945C475.393 197.942 475.537 198.214 475.71 198.353C475.915 198.516 476.276 198.209 476.559 198.183C476.865 198.156 477.155 198.106 477.402 198.098C477.736 198.087 478.117 198.227 478.42 198.198C478.752 198.166 478.969 197.955 479.193 197.826C479.566 197.611 479.897 197.396 480.873 196.869C481.429 196.569 481.729 196.333 482.031 196.256C482.503 196.136 483.263 196.603 483.839 196.673C484.368 196.738 484.946 197.068 485.138 197.193C485.262 197.399 485.445 197.539 485.658 197.639C485.712 197.658 485.767 197.671 485.848 197.688M483.88 152.041C484.039 152.042 484.571 152.034 485.099 152.066C485.584 152.095 485.935 152.12 486.039 152.1C486.294 152.052 486.57 151.786 487.252 151.685C488.112 151.557 488.41 151.656 488.66 151.645C488.779 151.64 488.908 151.628 489.03 151.66C489.087 151.675 489.119 151.729 489.144 151.812C489.319 152.407 489.078 153.14 489.084 153.442C489.099 154.107 489.334 154.759 489.596 155.237C489.813 155.632 490.177 156.109 490.368 156.35C490.527 156.55 490.678 156.78 490.788 157.021C490.906 157.281 491.047 157.663 491.132 158.013C491.258 158.534 491.204 158.92 491.313 159.586C491.366 159.911 491.629 160.108 491.839 160.282C492.083 160.483 492.221 160.661 492.434 160.762C492.643 160.86 492.751 161.153 492.863 161.632C493.065 162.499 493.051 162.92 493.032 163.179C493.011 163.465 493.182 163.719 493.39 163.988C493.533 164.174 493.689 164.359 493.967 164.701C494.196 164.982 494.456 165.054 494.63 165.261C494.866 165.541 495.105 165.702 495.336 165.858L495.354 165.87C495.671 166.084 496.027 166.285 496.33 166.528C496.659 166.793 496.792 167.221 496.886 167.496C496.973 167.747 497.01 168.012 496.968 168.251C496.938 168.426 496.728 168.492 496.66 168.586C496.491 168.822 496.639 169.202 496.738 169.782C496.908 170.777 497.055 170.984 497.104 171.212C497.128 171.323 497.23 171.397 497.346 171.448C497.713 171.613 498.237 171.616 498.467 171.718C498.713 171.826 498.537 172.499 498.518 172.866C498.507 173.082 498.229 173.345 497.855 173.721C497.346 174.233 497.086 174.362 496.842 174.549C496.623 174.717 496.301 174.879 496.041 175.038C495.829 175.168 495.496 175.141 495.221 175.156C494.682 175.186 494.094 175.43 493.939 175.598C493.786 175.763 493.717 175.992 493.498 176.379C493.324 176.66 493.143 176.981 492.805 177.594C492.734 177.723 492.7 177.775 492.594 177.933M492.566 177.965C492.55 178.043 492.475 178.297 492.401 178.604C492.294 179.055 492.208 179.608 492.172 180.007C492.144 180.309 492.031 180.85 491.959 181.235C491.93 181.581 491.948 181.796 491.96 181.946C491.957 182.019 491.934 182.086 491.873 182.285M437.386 108.829C437.457 108.93 437.781 108.949 438.29 109.013C438.962 109.097 438.974 109.671 439.002 109.821C439.06 110.131 438.487 110.17 438.165 110.237C438.082 110.254 438.032 110.368 438.016 110.467C437.981 110.674 438.113 110.866 438.251 111.002C438.41 111.159 438.637 111.186 438.773 111.264C438.841 111.303 438.867 111.395 438.878 111.484C438.932 111.933 438.674 112.506 438.755 112.96C438.773 113.063 438.835 113.136 438.896 113.194C439.015 113.308 439.213 113.31 439.414 113.282C439.759 113.233 440.021 112.989 440.54 112.978C441.198 112.963 441.664 113.172 442.255 113.443C442.773 113.681 442.957 114.185 443.249 114.508C443.476 114.759 443.856 114.461 443.998 114.493C444.534 114.614 443.989 116.006 444.11 116.555C444.212 117.02 444.562 117.317 445.196 118.353C445.548 118.928 445.732 119.48 445.926 119.927C446.009 120.117 446.145 120.256 446.282 120.332C446.419 120.408 446.613 120.351 446.793 120.453C447.202 120.688 447.324 121.063 447.488 121.513C447.628 121.899 447.896 122.176 447.903 122.696C447.91 123.163 447.642 123.692 447.609 124.085C447.58 124.432 447.574 124.807 447.307 125.278C447.1 125.644 446.879 126.106 446.806 126.676C446.79 126.795 446.9 126.874 446.983 126.909C447.342 127.061 447.741 126.737 448.035 126.494C448.335 126.248 448.536 126.002 448.67 125.909C449.05 125.642 449.497 126.362 449.659 126.374C450.024 126.4 450.32 125.943 451.893 125.968C452.943 125.985 453.373 125.803 453.76 125.693C454.093 125.598 454.46 125.685 454.833 125.442C454.929 125.379 455.027 125.345 455.088 125.368C455.15 125.39 455.173 125.471 455.172 125.577C455.164 126.223 454.68 127.011 454.307 127.477C454.107 127.726 453.882 127.867 453.723 127.948C453.382 128.122 452.601 127.797 452.038 127.695C451.593 127.615 451.157 127.713 450.743 127.743C450.646 127.75 450.549 127.778 450.475 127.839C450.168 128.091 450.192 128.533 450.117 128.9C450.046 129.249 449.701 129.546 449.332 129.754C448.944 129.972 448.542 129.903 448.232 130.071C447.935 130.233 447.951 130.611 447.96 130.826L447.96 130.826C447.964 130.925 448.033 130.996 448.105 131.045C448.47 131.293 449.034 131.339 449.377 131.514C449.693 131.676 449.848 131.921 449.998 132.019C450.523 132.36 451.39 132.008 451.836 132.177C452.214 132.32 452.162 132.89 452.217 133.298C452.267 133.673 452.291 134.046 452.366 134.412C452.404 134.597 452.515 134.75 452.556 134.91C452.598 135.071 452.505 135.274 452.406 135.474C452.241 135.805 451.71 135.84 451.263 135.898C451.163 135.91 451.081 135.931 451.016 135.976C450.741 136.166 450.786 136.642 450.715 137.353C450.68 137.707 451.169 137.886 451.352 138.232C451.521 138.553 451.736 138.86 452.293 139.109C452.71 139.296 453.259 139.447 453.739 139.649C454.075 139.79 454.345 140.016 454.757 140.193C455.289 140.422 455.935 140.464 456.737 140.576C456.977 140.609 457.158 140.56 457.328 140.507C457.723 140.385 457.732 139.981 457.901 139.93C458.085 139.874 458.287 140.029 458.447 140.145C458.742 140.36 458.598 141.012 458.522 141.431C458.504 141.528 458.495 141.638 458.534 141.702C458.725 142.007 459.208 142.077 459.443 142.339C459.559 142.468 459.775 142.519 459.949 142.632C460.029 142.685 460.054 142.779 460.044 142.852C459.994 143.203 459.498 143.402 459.403 143.824C459.372 143.963 459.384 144.138 459.424 144.256C459.597 144.766 460.618 144.484 461.212 144.484C461.626 144.484 461.938 144.812 462.337 144.934C463.151 145.183 463.951 145.216 464.416 145.303C464.578 145.334 464.746 145.083 464.958 144.824C465.167 144.568 465.584 145.202 465.808 145.529C466.158 146.041 465.984 146.594 466.085 147.053C466.173 147.452 466.228 147.809 466.267 148.168C466.316 148.608 466.274 149.134 466.305 149.477C466.312 149.564 466.334 149.651 466.375 149.723C466.416 149.796 466.479 149.852 466.557 149.888C466.635 149.924 466.728 149.939 466.814 149.932C466.901 149.926 466.979 149.899 467.034 149.843C467.314 149.557 467.078 148.735 467.042 148.13L467.04 148.096C467.018 147.733 466.996 147.381 467.152 147.048C467.336 146.657 467.699 146.49 468.028 146.315C468.356 146.141 468.752 146.116 469.144 146.08C469.992 146.003 471.214 146.615 472.274 146.721C472.547 146.748 472.7 146.613 472.868 146.601C473.286 146.571 473.729 147.344 474.027 147.707C474.286 148.023 475.04 147.631 475.703 147.662C476.78 147.714 477.23 147.768 477.798 147.935C478.251 148.067 478.333 148.558 478.529 148.86C478.585 148.925 478.648 148.987 478.726 149.02C478.804 149.053 478.896 149.056 478.925 148.989M478.906 149.174C478.99 149.257 479.263 149.535 479.535 149.785C479.803 150.031 480.026 150.268 480.36 150.376C480.773 150.51 481.142 150.595 481.586 150.7C482.188 150.842 482.674 150.907 483.091 151.058C483.364 151.157 483.526 151.372 483.61 151.514C483.639 151.595 483.637 151.693 483.667 151.778C483.698 151.863 483.76 151.931 483.945 152.106M433.907 69.8704C433.88 69.9984 433.793 70.3458 433.446 71.4075C433.133 72.3658 433.058 72.8668 432.967 73.3629C432.883 73.8152 432.818 74.1588 432.69 74.2671C432.541 74.3929 432.346 74.4795 432.174 74.5882C431.759 74.8519 431.823 75.6772 431.77 76.0025C431.758 76.0807 431.723 76.1519 431.665 76.1833C431.362 76.3458 430.99 75.8992 430.779 75.6638C430.727 75.6051 430.699 75.5261 430.638 75.4792C430.378 75.2773 430 75.5161 429.594 75.6358C429.17 75.7612 428.777 75.3444 428.466 75.2285C428.173 75.1192 427.931 75.4939 427.732 75.7692C427.682 75.8388 427.69 75.9324 427.704 76.0064C427.761 76.3093 428.215 76.471 428.443 76.9193C428.655 77.3362 428.88 77.6569 429.102 77.8884C429.176 77.966 429.357 77.9414 429.442 77.9843C429.527 78.0272 429.536 78.0993 429.537 78.1779C429.538 78.3398 429.462 78.5107 429.335 78.6645C428.964 79.1166 428.141 79.3807 427.811 79.5267C427.608 79.6161 427.428 79.705 427.295 79.7948C427.014 79.9848 426.78 80.7292 426.534 81.24C426.495 81.3213 426.494 81.4117 426.51 81.4844C426.581 81.8045 427.201 81.8317 427.537 81.9155C427.626 81.9378 427.724 81.9802 427.788 82.036C428.045 82.2593 427.79 82.772 427.707 83.1188C427.598 83.5737 427.886 83.8558 428.095 84.1557C428.449 84.6622 429.155 84.6059 429.492 84.8382C429.936 85.1444 430.169 85.4175 430.323 85.7285C430.524 86.1318 430.003 86.5246 429.785 86.8012C429.545 87.1067 429.153 87.3674 428.883 87.6489C428.656 87.8857 428.624 88.2391 428.513 88.6226C428.418 88.9489 428.315 89.2934 428.105 89.5796C427.776 90.0266 427.228 90.1614 426.957 90.346C426.827 90.4346 427.004 90.6677 427.069 90.7953C427.135 90.9236 427.3 90.988 427.464 91.0363C427.818 91.1402 428.333 91.0145 429.414 91.0901C429.897 91.124 430.203 91.1244 430.326 91.1562C430.59 91.2242 430.647 91.6745 430.911 91.8696C431.165 92.0576 431.538 92.1947 432.22 92.5985C432.44 92.7285 432.608 92.7451 432.753 92.7326C433.058 92.7062 433.335 92.5671 433.565 92.6184C433.657 92.6386 433.663 92.7373 433.652 92.8163C433.631 92.9802 433.526 93.1274 433.426 93.2576C433.228 93.5171 432.836 93.5401 432.593 93.7498C432.239 94.0545 432.106 94.5571 431.921 94.9769C431.783 95.2904 431.927 95.7482 431.961 96.17C431.995 96.6109 431.918 97.191 431.96 97.5001C432.005 97.8253 432.52 98.0256 432.937 98.2582C433.64 98.65 433.921 98.6232 434.041 98.7271C434.419 99.0522 434.172 100.125 434.069 101.309C434.044 101.597 433.986 101.815 433.982 102.062C433.976 102.482 434.352 102.799 434.596 102.976C434.845 103.157 434.939 103.488 434.981 103.801C435.056 104.356 434.915 105.001 434.963 105.341C434.997 105.583 435.087 105.775 435.229 105.87C435.547 106.081 435.966 106.07 436.362 106.252C436.642 106.381 436.731 106.71 436.892 106.975C437.043 107.225 437.025 107.543 437.044 107.849C437.191 108.171 437.364 108.451 437.47 108.617C437.518 108.696 437.552 108.765 437.479 108.655M421.009 34.7678C421.039 34.8873 421.205 35.4914 421.481 36.298C421.561 36.5311 421.611 36.7239 421.7 36.9109C421.743 37.0002 421.838 37.0442 421.917 37.0727C421.997 37.1012 422.071 37.104 422.126 37.0573C422.394 36.8298 422.336 36.4324 422.469 36.115C422.585 35.8376 422.966 35.793 423.236 35.7627C423.649 35.7164 424.058 36.3855 424.402 36.5129C424.827 36.6699 425.268 36.6698 425.996 36.8488C426.78 37.0417 427.042 37.262 427.187 37.2769C427.536 37.3126 427.809 37.0026 428.123 37.0289C428.944 37.0976 429.835 38.1217 430.237 38.2316C430.723 38.3642 431.211 38.4424 431.598 38.6324C431.937 38.7992 432.277 38.9353 432.686 38.9303C433.492 38.9205 433.773 38.9904 434.089 39.1417C434.406 39.2938 434.358 40.0355 434.409 40.5045C434.417 40.5816 434.435 40.6568 434.4 40.7333C434.323 40.9047 434.164 41.0191 434.067 41.1219C433.969 41.2251 433.623 41.2589 433.2 41.3481C432.417 41.5135 432.239 42.9947 432.215 43.3726C432.204 43.5373 432.379 43.6812 432.506 43.8278C432.616 43.9547 432.828 44.024 433.042 44.064C433.199 44.0934 433.292 43.8761 433.423 43.8089C433.494 43.7726 433.602 43.8081 433.684 43.8384C433.767 43.8688 433.828 43.9124 433.85 43.9731C433.948 44.2428 433.727 44.6925 433.663 45.071C433.607 45.4082 433.232 45.5418 432.846 45.6798L432.844 45.6805C432.521 45.7959 432.276 45.9254 432.196 46.0173C432.159 46.0603 432.217 46.1435 432.272 46.2033C432.605 46.5617 433.322 46.9597 433.651 47.1856C433.713 47.2278 433.796 47.1969 433.838 47.2421C433.94 47.3517 433.891 47.6085 433.834 47.8436C433.736 48.2473 433.369 48.4384 433.021 48.6298C432.633 48.8436 432.256 48.9745 431.81 49.0773C431.23 49.2112 430.432 49.0726 429.867 49.442C429.617 49.605 429.469 49.7472 429.388 49.8927C429.213 50.207 429.281 50.5707 429.219 50.9125C429.159 51.2366 429.322 51.5131 429.368 51.6394C429.542 52.1099 430.417 51.6442 430.844 51.5942C431.243 51.5475 431.795 51.5858 432.279 51.5981C432.462 51.6028 432.504 51.7341 432.516 51.9444C432.573 52.9909 432.626 53.5466 432.77 53.8462C432.928 54.1742 432.665 54.7803 432.522 55.2565C432.399 55.6628 432.527 56.0176 432.552 56.5399C432.57 56.8977 432.283 57.2002 432.229 57.5116C432.215 57.5879 432.28 57.6573 432.345 57.7031C432.621 57.8979 432.968 58.0447 433.368 58.5406C433.621 58.854 433.649 59.095 433.701 59.2216C433.813 59.4969 433.285 59.6985 433.006 59.8808C432.587 60.1544 432.449 60.8577 432.362 61.168C432.341 61.2439 432.301 61.3089 432.214 61.3621C431.722 61.6631 431.063 61.5246 430.437 61.5906C430.065 61.6298 429.8 61.911 429.509 62.3151C429.126 62.8471 428.812 63.1113 428.591 63.4995C428.151 64.2705 428.469 65.0298 428.612 65.5105C428.695 65.7884 428.983 65.9282 429.246 66.0561L429.252 66.0591C429.508 66.1834 429.858 66.0583 430.504 65.8852C430.983 65.7567 431.503 65.441 431.861 65.1717C432.055 65.0258 432.247 64.9225 432.391 64.8369C432.461 64.7946 432.559 64.8227 432.639 64.8663C433.343 65.2486 433.797 66.4899 433.772 66.9361C433.742 67.4513 433.827 67.8571 433.963 68.1447C434.081 68.4629 434.124 68.6811 434.153 68.8587C434.158 68.9628 434.146 69.0953 434.015 69.3188M433.978 69.42C433.978 69.4233 433.985 69.4474 433.998 69.4939C434.009 69.5437 434.011 69.6038 434.003 69.6673C433.998 69.6969 433.992 69.7214 433.986 69.7466M357.613 5.34982C357.75 5.27522 358.229 5.01009 358.71 4.74571C359.151 4.50319 359.534 4.11007 359.787 3.60886C360.013 3.16159 359.924 2.67083 359.949 2.26157C359.973 1.84774 360.773 2.15449 361.242 2.12348C361.702 2.09309 362.164 1.72794 362.664 1.52756C362.779 1.48178 362.897 1.49665 362.994 1.54873C363.511 1.82775 363.828 2.65586 364.226 2.97226C364.679 3.33172 365.442 3.52784 365.955 3.74797C366.472 3.96966 367.037 4.24382 367.471 4.57364C368.424 5.29841 369.75 5.55605 370.92 5.9827C372.054 6.39591 372.562 6.6109 373.076 6.80056C373.543 6.97311 374.194 7.16336 374.804 7.31188C375.53 7.48846 376.127 7.41003 376.685 7.54636C377.248 7.68376 377.591 8.18053 378.029 8.43552C378.596 8.76524 379.359 8.39779 379.927 8.29442C380.439 8.20111 380.91 7.77535 381.36 7.38971C381.542 7.23355 381.775 7.16879 381.989 7.12993C382.47 7.04279 382.705 7.82553 382.956 8.23402C383.187 8.6111 383.343 9.03922 383.602 9.39642C383.911 9.82121 384.691 9.67459 385.251 9.97931C385.476 10.1014 385.558 10.3446 385.702 10.5032C386.036 10.8704 386.731 10.6601 387.31 10.7685C387.623 10.8272 387.896 10.8036 388.056 10.7847C388.115 10.7778 388.095 10.9289 388.035 11.0269C387.782 11.4404 387.147 11.446 385.985 11.8155C385.734 11.8954 385.64 11.9577 385.576 12.0484C385.304 12.4307 385.453 12.9942 385.317 13.4641C385.185 13.9191 384.667 14.2682 384.461 14.732C384.344 14.9942 384.435 15.3234 384.511 15.598C384.639 16.0579 385.196 16.2898 385.592 16.6244C385.784 16.7872 385.97 16.9415 386.105 16.9597C386.659 17.0345 386.508 15.9488 386.939 15.5069C387.035 15.4075 387.142 15.3627 387.248 15.3385C387.72 15.2302 388.476 15.8099 389.033 16.1473C389.475 16.4158 389.783 16.8293 389.918 17.3084C390.044 17.7534 389.636 18.2381 389.316 18.8931C389.136 19.2634 389.079 19.7499 389.049 20.2125C389.01 20.801 389.483 21.1378 389.838 21.5159C390.184 21.885 390.488 22.0606 390.694 22.1089C391.125 22.21 391.397 21.5615 391.876 21.3925C392.011 21.3449 392.172 21.3828 392.258 21.4434C392.605 21.6882 392.637 22.5593 393.072 23.4705C393.341 24.0325 393.532 24.6934 393.737 25.2366C393.91 25.6924 394.526 25.712 394.956 25.8256C395.41 25.9459 395.905 25.9426 396.421 26.3147C396.957 26.7013 397.424 27.3067 397.877 27.6482C398.071 27.7946 398.327 27.7805 398.547 27.7079C399.044 27.5443 399.121 26.6326 399.253 25.807C399.279 25.6417 399.382 25.5308 399.483 25.464C399.914 25.1813 400.841 25.5699 401.451 25.7415C401.697 25.8109 401.943 25.9233 402.13 26.0931C402.221 26.176 402.22 26.3261 402.204 26.4467C402.173 26.681 401.952 26.8875 401.702 27.0507C401.314 27.3036 400.913 27.2498 400.714 27.3542C400.181 27.6345 400.443 28.6464 400.537 28.8572C400.58 28.955 400.727 28.9626 400.844 28.9568C401.309 28.9337 401.703 28.5932 402.036 28.1419C402.338 27.7336 402.689 27.3637 403.012 27.0261C403.173 26.8571 403.327 26.683 403.446 26.4738C403.7 26.0286 403.501 25.6369 403.488 25.4098C403.464 24.9783 404.071 24.707 404.271 24.233C404.333 24.0874 404.325 23.8731 404.393 23.7508C404.509 23.5411 404.806 23.554 405.024 23.5661C405.516 23.5935 406.089 23.9294 406.578 24.0681C407.034 24.1974 407.254 24.9337 407.444 25.5677L407.445 25.572C407.587 26.0468 407.96 26.4175 408.268 26.7234L408.277 26.733C408.609 27.0624 409.29 26.737 409.684 26.9635C410.069 27.1847 410.125 27.7919 410.59 28.3472C410.806 28.6056 411.137 28.6929 411.406 28.7428C411.53 28.7657 411.635 28.6845 411.711 28.5993C412.031 28.2355 411.928 27.6289 412.05 27.1562C412.106 26.9354 412.367 26.8004 412.644 26.705C413.121 26.5413 413.727 26.6863 414.218 26.6621C414.829 26.632 415.543 27.2077 415.925 27.4855C416.307 27.7638 416.245 28.2968 416.219 28.5108C416.163 28.9784 415.253 29.0427 414.829 29.33C414.386 29.6303 414.067 30.1152 413.676 30.4342C413.496 30.5814 413.405 30.8706 413.413 31.2279C413.425 31.7995 413.836 32.1652 414.139 32.4291C414.55 32.7859 414.925 31.4403 415.129 31.3111C415.463 31.099 415.464 32.1178 415.496 32.6554C415.525 33.142 415.752 33.5916 416.164 33.888C416.632 34.2241 417.175 34.0851 417.667 34.0571C418.148 34.0298 418.616 34.2549 419.084 34.3031C419.519 34.2062 419.972 34.2655 420.414 34.3887C420.537 34.3828 420.677 34.319 420.821 34.2532" stroke="#ffffff" stroke-width="3" stroke-linecap="round"/>
</svg>
