<svg width="14" height="14" viewBox="0 0 14 14" fill="none" xmlns="http://www.w3.org/2000/svg">
<path d="M1.592 7.29659L7.031 12.7356C7.12833 12.8329 7.17933 12.9476 7.184 13.0796C7.188 13.2116 7.13467 13.3326 7.024 13.4426C6.91467 13.5493 6.797 13.6036 6.671 13.6056C6.54567 13.6069 6.42767 13.5526 6.317 13.4426L0.237 7.36259C0.149667 7.27459 0.0883333 7.18526 0.053 7.09459C0.0176666 7.00392 0 6.90459 0 6.79659C0 6.68859 0.0176666 6.58925 0.053 6.49859C0.0883333 6.40792 0.149667 6.31892 0.237 6.23159L6.317 0.150588C6.41033 0.057255 6.524 0.0072549 6.658 0.000588234C6.79267 -0.00607843 6.915 0.0439217 7.025 0.150588C7.135 0.260588 7.19 0.379255 7.19 0.506588C7.19 0.634588 7.135 0.753588 7.025 0.863588L1.591 6.29659H13.171C13.3137 6.29659 13.4327 6.34425 13.528 6.43959C13.6233 6.53492 13.671 6.65392 13.671 6.79659C13.671 6.93926 13.6233 7.05826 13.528 7.15359C13.4327 7.24892 13.3137 7.29659 13.171 7.29659H1.592Z" fill="black"/>
</svg>
