<svg width="36" height="29" viewBox="0 0 36 29" fill="currentColor" xmlns="http://www.w3.org/2000/svg">
<path d="M7.39892 0C5.36592 0 3.86333 1.77967 3.93142 3.70817C3.99475 5.56225 3.91083 7.96417 3.306 9.92117C2.69958 11.8845 1.67517 13.129 0 13.2889V15.0907C1.67517 15.2507 2.69958 16.4952 3.306 18.4585C3.91083 20.4171 3.99475 22.8174 3.92983 24.6715C3.86333 26.6 5.36592 28.3797 7.4005 28.3797H28.2277C30.2607 28.3797 31.7648 26.6 31.6983 24.6715C31.6334 22.8174 31.7173 20.4171 32.3206 18.4585C32.9286 16.4952 33.9514 15.2507 35.625 15.0907V13.2889C33.9498 13.129 32.9286 11.8845 32.3206 9.92117C31.7173 7.96417 31.6334 5.56225 31.6983 3.70817C31.7648 1.77967 30.2607 0 28.2277 0H7.39892ZM24.1522 17.4689C24.1522 20.1257 22.1714 21.7376 18.8828 21.7376H13.2842C13.2048 21.738 13.126 21.7227 13.0526 21.6925C12.9791 21.6624 12.9123 21.618 12.8561 21.5619C12.7999 21.5058 12.7553 21.4392 12.725 21.3658C12.6946 21.2924 12.6791 21.2137 12.6793 21.1343V7.24533C12.6793 7.16605 12.695 7.08756 12.7254 7.01435C12.7559 6.94115 12.8005 6.87468 12.8567 6.81877C12.9129 6.76286 12.9796 6.7186 13.0529 6.68855C13.1263 6.6585 13.2049 6.64325 13.2842 6.64367H18.8496C21.5919 6.64367 23.3922 8.12725 23.3922 10.4088C23.3922 12.008 22.1809 13.4425 20.6388 13.6927V13.7766C22.7383 14.0062 24.1522 15.4612 24.1522 17.4689ZM18.2717 8.55633H15.0797V13.0657H17.7682C19.8471 13.0657 20.9918 12.2281 20.9918 10.7318C20.9918 9.33058 20.007 8.55633 18.2717 8.55633ZM15.0797 14.8532V19.8233H18.3888C20.5533 19.8233 21.698 18.9541 21.698 17.3217C21.698 15.6908 20.5216 14.8532 18.2495 14.8532H15.0797Z" fill=""/>
</svg>
