<svg width="40" height="29" viewBox="0 0 40 29" fill="currentColor" xmlns="http://www.w3.org/2000/svg">
<path d="M13.3167 8.225H16.8417C17.0375 8.225 17.2333 8.02917 17.2333 7.83333V4.89583C17.2333 4.7 17.0375 4.50417 16.8417 4.50417H13.3167C13.1208 4.50417 12.925 4.7 12.925 4.89583V8.02917C12.925 8.02917 13.1208 8.225 13.3167 8.225ZM18.0167 12.7292H21.5417C21.7375 12.7292 21.9333 12.5333 21.9333 12.3375V9.20417C21.9333 9.00833 21.7375 8.8125 21.5417 8.8125H18.0167C17.8208 8.8125 17.625 9.00833 17.625 9.20417V12.3375C17.625 12.5333 17.8208 12.7292 18.0167 12.7292ZM18.0167 8.225H21.5417C21.7375 8.225 21.9333 8.02917 21.9333 7.83333V4.89583L21.5417 4.50417H18.0167C17.8208 4.50417 17.625 4.7 17.625 4.89583V8.02917C17.625 8.02917 17.8208 8.225 18.0167 8.225ZM22.9125 12.7292H26.4375C26.6333 12.7292 26.8292 12.5333 26.8292 12.3375V9.20417C26.8292 9.00833 26.6333 8.8125 26.4375 8.8125H22.9125C22.7167 8.8125 22.5208 9.00833 22.5208 9.20417V12.3375C22.5208 12.5333 22.7167 12.7292 22.9125 12.7292ZM18.0167 3.72083H21.5417C21.7375 3.72083 21.9333 3.525 21.9333 3.32917V0.391667C21.9333 0.195834 21.7375 0 21.5417 0H18.0167C17.8208 0 17.625 0.195834 17.625 0.391667V3.525C17.625 3.72083 17.8208 3.72083 18.0167 3.72083ZM3.525 12.7292H7.05C7.24583 12.7292 7.44167 12.5333 7.44167 12.3375V9.20417C7.44167 9.00833 7.24583 8.8125 7.05 8.8125H3.525C3.32917 8.8125 3.13333 9.00833 3.13333 9.20417V12.3375L3.525 12.7292ZM38.775 10.7708C37.7958 10.1833 36.6208 9.79167 35.6417 9.9875C35.0542 9.9875 34.4667 9.9875 34.075 10.1833C33.6833 8.42083 32.7042 6.85417 31.3333 6.07083L30.7458 5.67917L30.3542 6.26667C29.7667 6.65833 29.375 7.44167 29.1792 8.42083C28.7875 9.9875 28.9833 11.5542 29.7667 12.7292C28.7875 13.1208 27.8083 13.3167 26.8292 13.5125H1.175C0.5875 13.5125 0 14.1 0 14.6875C0 17.0375 0.391666 19.1917 1.175 21.3458C1.95833 23.5 3.32917 25.2625 5.09167 26.4375C7.83333 27.8083 10.7708 28.3958 13.7083 28.2C15.275 28.2 16.8417 28.0042 18.4083 27.8083C20.5625 27.4167 22.7167 26.6333 24.675 25.4583C26.2417 24.4792 27.6125 23.3042 28.9833 21.9333C30.7458 19.7792 32.1167 17.4292 33.0958 14.6875H33.4875C35.0542 14.6875 36.6208 14.1 37.7958 13.1208C38.3833 12.7292 38.775 12.1417 38.9708 11.3583L39.1667 10.9667L38.775 10.7708ZM8.42083 12.7292H11.75C11.9458 12.7292 12.1417 12.5333 12.1417 12.3375V9.20417C12.1417 9.00833 11.9458 8.8125 11.75 8.8125H8.42083C8.225 8.8125 8.02917 9.00833 8.02917 9.20417V12.3375C8.02917 12.5333 8.225 12.7292 8.42083 12.7292ZM8.42083 8.225H11.75C11.9458 8.225 12.1417 8.02917 12.1417 7.83333V4.89583C12.1417 4.7 11.9458 4.50417 11.75 4.50417H8.42083C8.225 4.50417 8.02917 4.7 8.02917 4.89583V8.02917C8.02917 8.02917 8.225 8.225 8.42083 8.225ZM13.3167 12.7292H16.8417C17.0375 12.7292 17.2333 12.5333 17.2333 12.3375V9.20417C17.2333 9.00833 17.0375 8.8125 16.8417 8.8125H13.3167C13.1208 8.8125 12.925 9.00833 12.925 9.20417V12.3375C12.925 12.5333 13.1208 12.7292 13.3167 12.7292Z" fill=""/>
</svg>
