<svg width="14" height="20" viewBox="0 0 14 20" fill="currentColor" xmlns="http://www.w3.org/2000/svg">
<path d="M1.50029e-07 3.333C1.50029e-07 2.44903 0.351154 1.60127 0.976213 0.976213C1.60127 0.351154 2.44903 0 3.333 0H10C10.8841 0 11.732 0.351207 12.3571 0.97636C12.9823 1.60151 13.3335 2.4494 13.3335 3.3335C13.3335 4.2176 12.9823 5.06549 12.3571 5.69064C11.732 6.31579 10.8841 6.667 10 6.667H6.667V16.667C6.6668 17.3261 6.47118 17.9704 6.10487 18.5183C5.73856 19.0663 5.21801 19.4933 4.60902 19.7455C4.00004 19.9976 3.32996 20.0635 2.68352 19.9349C2.03707 19.8063 1.44328 19.4889 0.977213 19.0228C0.511145 18.5567 0.193728 17.9629 0.0650918 17.3165C-0.0635447 16.67 0.00237527 16 0.254518 15.391C0.506661 14.782 0.933705 14.2614 1.48166 13.8951C2.02962 13.5288 2.67388 13.3332 3.333 13.333C2.44903 13.333 1.60127 12.9818 0.976213 12.3568C0.351154 11.7317 1.50029e-07 10.884 1.50029e-07 10C1.50029e-07 9.11603 0.351154 8.26827 0.976213 7.64321C1.60127 7.01815 2.44903 6.667 3.333 6.667C2.89522 6.667 2.46173 6.58076 2.05729 6.41319C1.65284 6.24563 1.28537 6.00004 0.975859 5.69043C0.666349 5.38083 0.420863 5.01328 0.253422 4.60879C0.0859823 4.2043 -0.000131197 3.77078 1.50029e-07 3.333ZM6.667 10C6.667 10.884 7.01815 11.7317 7.64321 12.3568C8.26827 12.9818 9.11603 13.333 10 13.333C10.884 13.333 11.7317 12.9818 12.3568 12.3568C12.9818 11.7317 13.333 10.884 13.333 10C13.333 9.11603 12.9818 8.26827 12.3568 7.64321C11.7317 7.01815 10.884 6.667 10 6.667C9.11603 6.667 8.26827 7.01815 7.64321 7.64321C7.01815 8.26827 6.667 9.11603 6.667 10Z" fill=""/>
</svg>
