<svg width="15" height="14" viewBox="0 0 15 14" fill="currentColor" xmlns="http://www.w3.org/2000/svg">
<path d="M5.77537 0.000249982C5.11287 0.14775 4.4575 0.35225 3.84325 0.66175C3.85737 1.20425 3.89263 1.72375 3.96338 2.25175C3.72513 2.4045 3.47413 2.53587 3.2515 2.7145C3.02488 2.88887 2.794 3.05537 2.58888 3.2595C2.17406 2.98438 1.74349 2.73378 1.29938 2.509C0.817875 3.027 0.3675 3.58612 0 4.21212C0.289125 4.66575 0.599125 5.12125 0.88575 5.47675V9.31712C0.893 9.31712 0.9 9.31742 0.90675 9.318L3.26125 9.54525C3.32088 9.55106 3.37652 9.57777 3.41834 9.62067C3.46016 9.66356 3.48546 9.71987 3.48975 9.77962L3.5625 10.8191L5.61575 10.9656L5.75737 10.0066C5.76625 9.94642 5.79647 9.8914 5.84252 9.85161C5.88857 9.81182 5.94739 9.78991 6.00825 9.78988H8.49175C8.55261 9.78991 8.61143 9.81182 8.65748 9.85161C8.70353 9.8914 8.73375 9.94642 8.74263 10.0066L8.88425 10.9656L10.938 10.8191L11.0103 9.77962C11.0145 9.71987 11.0398 9.66356 11.0817 9.62067C11.1235 9.57777 11.1791 9.55106 11.2388 9.54525L13.5922 9.31812C13.5991 9.31754 13.6061 9.31725 13.6132 9.31725V9.01025H13.6143V5.4765C13.9458 5.05962 14.2593 4.59912 14.5 4.212C14.1324 3.586 13.6821 3.027 13.2006 2.50888C12.7565 2.73366 12.3259 2.98425 11.9111 3.25937C11.7061 3.05525 11.4751 2.88875 11.2486 2.71438C11.0259 2.53563 10.7749 2.40438 10.5366 2.2515C10.6074 1.72363 10.6426 1.20413 10.6566 0.661625C10.0425 0.352125 9.38725 0.1475 8.72462 0C8.46 0.444875 8.21775 0.92625 8.00737 1.397C7.75737 1.3555 7.50638 1.33988 7.25488 1.337H7.25C7.248 1.33725 7.24712 1.3365 7.245 1.3365C6.99375 1.33937 6.74263 1.3555 6.49263 1.397C6.28225 0.926375 6.04012 0.445125 5.77537 0.000249982ZM3.91262 5.61775C4.69637 5.61775 5.3315 6.25262 5.3315 7.03587C5.3315 7.81962 4.69625 8.45475 3.91262 8.45475C3.12937 8.45475 2.49412 7.8195 2.49412 7.03587C2.49412 6.25262 3.12937 5.61775 3.91262 5.61775ZM10.5874 5.61775C11.3706 5.61775 12.0059 6.25262 12.0059 7.03587C12.0059 7.81962 11.3706 8.45475 10.5874 8.45475C9.80362 8.45475 9.1685 7.8195 9.1685 7.03587C9.1685 6.25262 9.80375 5.61775 10.5874 5.61775ZM7.25 6.44763C7.502 6.44763 7.707 6.63363 7.707 6.86263V8.16875C7.707 8.39775 7.502 8.58375 7.25 8.58375C6.9975 8.58375 6.7935 8.39775 6.7935 8.16875V6.8625C6.7935 6.63363 6.9975 6.44763 7.25 6.44763Z" fill=""/>
<path d="M11.501 10.029L11.4283 11.074C11.424 11.1349 11.3979 11.1922 11.3547 11.2353C11.3115 11.2785 11.2542 11.3046 11.1932 11.3088L8.6855 11.488C8.67975 11.4885 8.67337 11.4885 8.6675 11.4885C8.543 11.4885 8.435 11.3973 8.417 11.2723L8.273 10.2965H6.227L6.083 11.2721C6.07373 11.3353 6.04091 11.3927 5.99111 11.4328C5.94132 11.4728 5.87823 11.4925 5.8145 11.488L3.30662 11.3088C3.24573 11.3045 3.18841 11.2784 3.14524 11.2353C3.10208 11.1921 3.07598 11.1348 3.07175 11.0739L2.999 10.0289L0.881875 9.82487C0.882875 10.0524 0.885625 10.3019 0.885625 10.3512C0.885625 12.5871 3.72213 13.6617 7.24563 13.674H7.25438C10.7779 13.6617 13.6132 12.5871 13.6132 10.3512C13.6132 10.301 13.6162 10.0525 13.6171 9.82487L11.501 10.029ZM4.99025 7.11975C4.99028 7.24343 4.96594 7.3659 4.91861 7.48017C4.87129 7.59444 4.8019 7.69826 4.71443 7.7857C4.62696 7.87313 4.52311 7.94248 4.40883 7.98976C4.29454 8.03704 4.17206 8.06133 4.04838 8.06125C3.79863 8.06128 3.5591 7.96211 3.38246 7.78555C3.20583 7.60899 3.10657 7.3695 3.1065 7.11975C3.10663 6.87005 3.20593 6.63062 3.38255 6.45411C3.55918 6.2776 3.79867 6.17847 4.04838 6.1785C4.17203 6.17842 4.2945 6.2027 4.40877 6.24997C4.52304 6.29723 4.62687 6.36655 4.71434 6.45396C4.80181 6.54138 4.8712 6.64517 4.91854 6.75941C4.96588 6.87364 4.99025 6.99609 4.99025 7.11975ZM9.50975 7.11975C9.50972 7.24339 9.53404 7.36582 9.58134 7.48006C9.62863 7.59429 9.69797 7.69809 9.78539 7.78552C9.87281 7.87295 9.9766 7.9423 10.0908 7.98961C10.2051 8.03692 10.3275 8.06127 10.4511 8.06125C10.7008 8.06125 10.9403 7.96206 11.1168 7.78551C11.2934 7.60896 11.3926 7.3695 11.3926 7.11981C11.3926 6.87013 11.2934 6.63067 11.1168 6.45412C10.9403 6.27756 10.7008 6.17838 10.4511 6.17838C10.3275 6.17838 10.2051 6.20273 10.0909 6.25004C9.97669 6.29735 9.87292 6.36669 9.78552 6.45411C9.69811 6.54152 9.62878 6.6453 9.58149 6.75951C9.53419 6.87372 9.50973 6.99613 9.50975 7.11975Z" fill=""/>
</svg>
