<svg width="34" height="13" viewBox="0 0 34 13" fill="currentColor" xmlns="http://www.w3.org/2000/svg">
<path d="M13.9256 0C15.083 0.00708333 15.9613 0.337166 16.5351 0.980333C17.0777 1.59092 17.3383 2.4735 17.31 3.60117L17.2902 3.68758C17.2722 3.72804 17.2427 3.76235 17.2055 3.78627C17.1682 3.81018 17.1248 3.82266 17.0805 3.82217H14.7302C14.6566 3.82182 14.5859 3.79278 14.5333 3.74121C14.4806 3.68963 14.4502 3.61958 14.4483 3.54592C14.4502 2.94714 14.2661 2.61186 13.8958 2.54008L13.7258 2.5245C13.2413 2.5245 12.9268 2.82342 12.9183 3.34475C12.9084 3.92558 13.2371 4.454 14.1721 5.36067C15.4017 6.51667 15.8962 7.54092 15.8721 8.89242C15.8338 11.0797 14.3463 12.495 12.0853 12.495C10.9307 12.495 10.0482 12.1848 9.46025 11.5756C8.86525 10.9565 8.59325 10.0484 8.64991 8.87542C8.65258 8.81575 8.67732 8.7592 8.71933 8.71675C8.76187 8.6756 8.81881 8.65272 8.878 8.653H11.309C11.3428 8.65513 11.3759 8.66329 11.4067 8.67708C11.4626 8.70621 11.5048 8.75604 11.5243 8.81592C11.5319 8.84425 11.5328 8.87258 11.5272 8.90092C11.5002 9.32308 11.5753 9.639 11.7411 9.81467C11.7978 9.87327 11.8666 9.91893 11.9426 9.94852C12.0187 9.9781 12.1002 9.99091 12.1817 9.98608C12.6307 9.98608 12.8942 9.66733 12.9042 9.11483C12.9127 8.63742 12.7597 8.21667 11.938 7.3695C10.8741 6.32967 9.92066 5.25583 9.95041 3.56717C9.95405 3.09447 10.053 2.62738 10.2414 2.19384C10.4299 1.7603 10.7038 1.36925 11.0469 1.04408C11.7751 0.361249 12.7696 0 13.9256 0ZM5.733 0.0396665C6.79125 0.0311665 7.62283 0.357 8.20083 1.01008C8.81283 1.7 9.12308 2.73983 9.1245 4.10125C9.12375 4.16112 9.09935 4.21826 9.05661 4.2602C9.01388 4.30214 8.95629 4.32546 8.89641 4.32508H6.345C6.30047 4.32305 6.25818 4.30493 6.226 4.27408C6.19536 4.24132 6.17773 4.19851 6.17641 4.15367C6.15658 3.27108 5.91008 2.8135 5.42275 2.75967L5.32216 2.754C4.34466 2.75542 3.76808 4.08283 3.46208 4.8195C3.02941 5.85021 2.82359 6.96196 2.85858 8.07925C2.87983 8.59775 2.96341 9.32592 3.45358 9.62767C3.88991 9.89542 4.51183 9.71833 4.88866 9.42083C5.26408 9.12475 5.56725 8.61192 5.69475 8.14442C5.71364 8.07831 5.71411 8.03203 5.69616 8.00558C5.68672 7.99519 5.67161 7.98811 5.65083 7.98433L4.93683 7.97867C4.90219 7.97766 4.86812 7.9696 4.8367 7.95499C4.80528 7.94037 4.77717 7.91951 4.75408 7.89367C4.73578 7.8739 4.7235 7.84933 4.71866 7.82283C4.71111 7.79693 4.71111 7.7694 4.71866 7.7435L5.16633 5.797C5.17946 5.74637 5.20784 5.70099 5.24763 5.66704C5.28741 5.63308 5.33668 5.61218 5.38875 5.60717V5.60292H9.68833L9.71808 5.60433C9.83 5.6185 9.90933 5.72333 9.90791 5.83667V5.84233L9.46025 7.78458C9.43616 7.89508 9.32566 7.97583 9.19958 7.97583H8.65983C8.64033 7.97596 8.6214 7.98237 8.60583 7.99411C8.59027 8.00585 8.5789 8.02229 8.57341 8.041C8.07475 9.7325 7.399 10.897 6.50791 11.5954C5.74858 12.1904 4.815 12.4681 3.5655 12.4681C2.4435 12.4681 1.687 12.1068 1.04525 11.3943C0.198081 10.4508 -0.151836 8.90942 0.060664 7.04933C0.443164 3.56008 2.25083 0.0396665 5.733 0.0396665ZM29.7724 0.226666C32.6199 0.226666 34.0422 1.51867 33.9983 4.06725C33.9459 7.05358 32.1269 9.24942 29.3885 9.75658C28.9984 9.82553 28.6051 9.85764 28.2084 9.85292L26.8852 9.84725C26.8639 9.84794 26.8436 9.85662 26.8284 9.87158C26.8132 9.88654 26.8041 9.90668 26.8031 9.928C26.8031 9.94217 26.8069 9.95586 26.8144 9.96908C26.8232 9.98053 26.8337 9.99056 26.8456 9.99883L27.9704 10.5853C28.063 10.6354 28.0989 10.7128 28.0781 10.8177L27.7848 12.1394C27.7607 12.2499 27.6715 12.3137 27.5426 12.3137H25.13C25.0955 12.3128 25.0614 12.3056 25.0294 12.2924C24.9984 12.2768 24.9706 12.2557 24.9472 12.2301C24.9297 12.2095 24.9173 12.1849 24.9112 12.1586C24.905 12.1322 24.9052 12.1048 24.9118 12.0785L27.5978 0.40375C27.6247 0.281916 27.7395 0.228083 27.8415 0.228083L29.7724 0.226666ZM24.4698 0.243667C24.4962 0.25548 24.5205 0.271245 24.5421 0.290417C24.5619 0.312313 24.5781 0.337169 24.5902 0.364083C24.5996 0.391002 24.6049 0.41918 24.6058 0.447667L24.5902 12.0827C24.5946 12.1101 24.5931 12.1381 24.586 12.1649C24.5778 12.1937 24.5633 12.2202 24.5434 12.2425C24.5235 12.2648 24.4989 12.2824 24.4712 12.2938C24.4429 12.307 24.4118 12.3133 24.3806 12.3123H21.8122C21.7535 12.3122 21.6971 12.2893 21.6549 12.2485C21.6357 12.2269 21.62 12.2026 21.6082 12.1762C21.5982 12.149 21.5924 12.1203 21.5912 12.0913L21.6464 10.9622C21.6492 10.8389 21.6464 10.8049 21.5742 10.7964L21.4778 10.7936H19.0497C18.874 10.7936 18.8612 10.8092 18.7989 10.9707L18.2946 12.1848C18.2492 12.2698 18.1586 12.3123 18.0226 12.3123H15.4797C15.3252 12.3123 15.2147 12.1593 15.2728 12.0162L20.54 0.400917C20.5754 0.3315 20.6292 0.226666 20.7511 0.226666H24.3862C24.4146 0.226666 24.4424 0.232333 24.4698 0.243667ZM21.9581 3.39292C21.9467 3.34758 21.9099 3.35183 21.8802 3.41133C21.8591 3.45427 21.8402 3.49824 21.8235 3.54308L20.0045 8.05233L19.9818 8.12033C19.9799 8.12978 19.9795 8.13875 19.9804 8.14725L19.9903 8.17133C19.9959 8.17864 20.0032 8.18448 20.0116 8.18833C20.0189 8.19296 20.0271 8.19587 20.0357 8.19683L21.5543 8.21667C21.7229 8.2025 21.7314 8.194 21.7484 8.02258C21.7512 7.96167 21.9666 3.44533 21.9581 3.39292ZM28.4917 2.822C28.4705 2.82266 28.4503 2.83126 28.4351 2.84608C28.4197 2.86108 28.4106 2.88132 28.4096 2.90275C28.4098 2.91744 28.4139 2.93182 28.4213 2.94448C28.4288 2.95714 28.4394 2.96766 28.4521 2.975L29.6449 3.60542C29.7044 3.638 29.7058 3.69467 29.686 3.79242C29.6761 3.83633 28.921 7.157 28.9224 7.15983C28.9267 7.16408 28.9493 7.17542 29.0627 7.17542H29.1137C30.3816 7.12442 31.0729 5.62558 31.0984 4.17067C31.1112 3.38442 30.8434 2.90133 30.3575 2.8305L30.2569 2.822H28.4917Z" fill=""/>
</svg>
