<svg width="19" height="19" viewBox="0 0 19 19" fill="currentColor" xmlns="http://www.w3.org/2000/svg">
<path d="M13.3744 7.60068V12.9577H12.0104V7.60068H13.3744ZM11.9334 6.10468C11.9334 5.68668 12.2404 5.36768 12.6914 5.36768C13.1544 5.36768 13.4404 5.68668 13.4514 6.10468C13.4514 6.51168 13.1534 6.83068 12.6814 6.83068C12.2304 6.83068 11.9334 6.51168 11.9334 6.10468Z" fill=""/>
<path fill-rule="evenodd" clip-rule="evenodd" d="M10.0754 12.9577L9.40442 10.8567H7.05042L6.41242 12.9577H5.01542L7.39142 5.54368H9.11842L11.5274 12.9577H10.0754ZM7.84242 8.00768L7.27042 9.83368H9.17342L8.59042 8.00768C8.47442 7.64268 8.37342 7.24168 8.28042 6.87468L8.21642 6.62168H8.19442C8.15709 6.76968 8.11909 6.92468 8.08042 7.08668C8.00642 7.39668 7.92942 7.71868 7.84242 8.00768Z" fill=""/>
<path fill-rule="evenodd" clip-rule="evenodd" d="M14.6994 0.290682C11.2048 -0.096894 7.67804 -0.096894 4.18342 0.290682C2.17142 0.515682 0.546419 2.10068 0.310419 4.12268C-0.103473 7.66731 -0.103473 11.2481 0.310419 14.7927C0.546419 16.8147 2.17042 18.3997 4.18342 18.6247C7.67808 19.0114 11.2048 19.0114 14.6994 18.6247C16.7114 18.3997 18.3364 16.8147 18.5724 14.7927C18.9863 11.2481 18.9863 7.66731 18.5724 4.12268C18.3364 2.10068 16.7124 0.515682 14.6994 0.290682ZM4.34942 1.78068C7.73371 1.40539 11.1491 1.40539 14.5334 1.78068C15.8634 1.93068 16.9284 2.97968 17.0834 4.29768C17.4846 7.72599 17.4846 11.1894 17.0834 14.6177C17.0032 15.2627 16.708 15.8619 16.2453 16.3184C15.7826 16.775 15.1795 17.0622 14.5334 17.1337C11.1491 17.509 7.73371 17.509 4.34942 17.1337C3.70336 17.0622 3.10027 16.775 2.63757 16.3184C2.17488 15.8619 1.87959 15.2627 1.79942 14.6177C1.39828 11.1894 1.39828 7.72599 1.79942 4.29768C1.87959 3.65264 2.17488 3.05346 2.63757 2.59693C3.10027 2.14041 3.70336 1.85219 4.34942 1.78068Z" fill=""/>
</svg>
