<svg width="43" height="30" viewBox="0 0 43 30" fill="currentColor" xmlns="http://www.w3.org/2000/svg">
<path d="M29.3923 2.95613C29.1863 2.95613 29.0465 2.98121 28.9014 3.01525V3.03854H28.9265C29.0232 3.22488 29.188 3.36104 29.3099 3.52767C29.4066 3.71938 29.489 3.91109 29.5858 4.101L29.6109 4.07413C29.7793 3.95588 29.8617 3.76596 29.8617 3.4775C29.79 3.39329 29.7793 3.30909 29.7184 3.22667C29.6467 3.10663 29.4926 3.0475 29.3959 2.95254L29.3923 2.95613ZM10.3379 26.5954H8.67704C8.63 23.9559 8.4686 21.3197 8.19329 18.6941H8.17896L5.65271 26.5954H4.38958L1.88125 18.6941H1.86333C1.66725 21.3238 1.55074 23.9587 1.51396 26.5954H0C0.0991389 23.0718 0.344 19.7691 0.734583 16.6875H2.795L5.18687 23.9688H5.20121L7.61458 16.6875H9.57646C10.01 20.2995 10.2657 23.6021 10.3433 26.5954H10.3379ZM17.535 19.2854C16.8578 22.9511 15.9667 25.6147 14.8619 27.2762C13.9983 28.559 13.0529 29.1999 12.0257 29.1987C11.7533 29.1987 11.4153 29.1163 11.0116 28.9514V28.0663C11.2099 28.0974 11.4404 28.1129 11.7032 28.1129C12.1833 28.1129 12.5697 27.9803 12.8624 27.7152C13.2147 27.3927 13.3909 27.0313 13.3909 26.6312C13.3909 26.3529 13.2536 25.7891 12.9788 24.9399L11.1621 19.2854H12.7925L14.095 23.5137C14.3901 24.474 14.5125 25.1447 14.4623 25.5258C15.179 23.617 15.6777 21.5369 15.9584 19.2854H17.535ZM39.6173 26.5954H34.9052V16.6875H36.4909V25.377H39.6173V26.5954ZM33.669 26.8373L31.8487 25.9414C32.0111 25.8064 32.1634 25.6571 32.3055 25.4935C33.0807 24.5857 33.4677 23.2402 33.4665 21.4569C33.4665 18.1781 32.1795 16.5382 29.6055 16.537C28.3442 16.537 27.3587 16.9532 26.6492 17.7858C25.8776 18.6959 25.4918 20.0367 25.4918 21.808C25.4906 23.5507 25.8334 24.8288 26.5202 25.6422C27.1461 26.3768 28.0915 26.7441 29.3565 26.7441C29.8295 26.7441 30.2624 26.6856 30.6554 26.5685L33.0294 27.9517L33.6744 26.8373H33.669ZM27.7708 24.612C27.3683 23.9658 27.167 22.929 27.167 21.5017C27.167 19.0053 27.9255 17.7571 29.4425 17.7571C30.238 17.7571 30.8214 18.0557 31.1929 18.6529C31.5942 19.3015 31.7949 20.3305 31.7949 21.74C31.7949 24.2567 31.0364 25.5156 29.5195 25.5168C28.7228 25.5168 28.1387 25.2182 27.7672 24.621L27.7708 24.612ZM24.8002 23.8505C24.8002 24.6938 24.4921 25.3842 23.8757 25.9217C23.2618 26.4592 22.4353 26.728 21.3961 26.728C20.4232 26.728 19.4898 26.4198 18.5778 25.8053L19.0024 24.9524C19.786 25.3454 20.4967 25.5413 21.1345 25.5401C21.7293 25.5401 22.197 25.4087 22.5374 25.1459C22.7079 25.0181 22.8456 24.8514 22.9391 24.6599C23.0326 24.4683 23.0791 24.2572 23.0749 24.044C23.0749 23.4528 22.6628 22.9511 21.9139 22.5301C21.2187 22.1485 19.8302 21.353 19.8302 21.353C19.0741 20.8029 18.6978 20.2135 18.6978 19.2442C18.6978 18.4391 18.9785 17.7911 19.5399 17.3002C20.1025 16.8033 20.8311 16.5555 21.7258 16.5567C22.6443 16.5567 23.4804 16.8015 24.2341 17.2913L23.8525 18.1441C23.2516 17.8787 22.603 17.7385 21.9461 17.732C21.4385 17.732 21.0479 17.855 20.7744 18.1011C20.6366 18.216 20.5256 18.3595 20.4488 18.5216C20.3721 18.6837 20.3316 18.8606 20.33 19.0399C20.33 19.6276 20.7493 20.1328 21.5233 20.5628C22.2274 20.948 23.65 21.7633 23.65 21.7633C24.4258 22.3097 24.811 22.892 24.811 23.8559L24.8002 23.8505ZM41.6097 13.3657C40.6511 13.3406 39.9076 13.4374 39.2859 13.7025C39.1067 13.7742 38.82 13.7742 38.795 14.0018C38.8935 14.0967 38.9078 14.2526 38.992 14.3852C39.1354 14.6253 39.3826 14.946 39.612 15.1144C39.8604 15.3138 40.1154 15.499 40.377 15.6698C40.8428 15.9565 41.3714 16.1267 41.8283 16.4151C42.088 16.5835 42.3532 16.7968 42.6166 16.9759C42.7474 17.0655 42.8316 17.2268 43 17.2841V17.2483C42.9176 17.1408 42.8925 16.9849 42.8119 16.8648C42.6918 16.7448 42.5718 16.6373 42.4535 16.519C42.1023 16.0551 41.6824 15.6473 41.2083 15.3097C40.8249 15.0481 39.9864 14.6826 39.8287 14.2436L39.8055 14.2185C40.067 14.1953 40.3788 14.1003 40.6296 14.0286C41.0363 13.9211 41.409 13.9444 41.83 13.8387C42.0212 13.7885 42.2123 13.7324 42.4034 13.6703V13.5628C42.1884 13.3478 42.0271 13.0558 41.805 12.8551C41.1842 12.3138 40.523 11.8208 39.827 11.3805C39.4507 11.1405 38.9741 10.9864 38.5782 10.7821C38.4348 10.7105 38.1947 10.6746 38.1123 10.5546C37.8973 10.293 37.7719 9.94542 37.6196 9.63367C37.2682 8.95099 36.9414 8.25597 36.6396 7.54996C36.4246 7.08054 36.2938 6.61292 36.0304 6.18292C34.7942 4.14579 33.4558 2.91134 31.3972 1.70375C30.9546 1.45292 30.4243 1.34542 29.8635 1.21284C29.5643 1.1985 29.2651 1.177 28.9677 1.16446C28.7706 1.08025 28.5807 0.852711 28.4122 0.743419C27.7314 0.313419 25.9684 -0.618247 25.4667 0.614419C25.1442 1.392 25.9451 2.15884 26.2228 2.553C26.4289 2.82713 26.6887 3.14067 26.832 3.44884C26.9162 3.65667 26.9395 3.86988 27.0237 4.08667C27.2136 4.61342 27.3946 5.20109 27.6454 5.69379C27.7762 5.94463 27.9195 6.208 28.088 6.43375C28.1847 6.56454 28.3495 6.62546 28.3872 6.84046C28.2187 7.08413 28.208 7.43888 28.1112 7.73629C27.6812 9.09259 27.8497 10.7696 28.4588 11.7675C28.6505 12.065 29.1074 12.7243 29.7184 12.4717C30.2559 12.2567 30.1376 11.5758 30.2917 10.9756C30.3275 10.8323 30.3042 10.7373 30.3777 10.6406V10.6675C30.5461 11.0043 30.7145 11.325 30.8686 11.6618C31.2377 12.2495 31.8827 12.8587 32.422 13.2654C32.7087 13.4804 32.9362 13.853 33.2945 13.9856V13.9498H33.2677C33.1906 13.8459 33.0885 13.7957 32.9917 13.7115C32.7649 13.4889 32.5552 13.2493 32.3647 12.9948C31.8614 12.304 31.4139 11.5743 31.0263 10.8126C30.8292 10.4363 30.6644 10.0314 30.5067 9.66054C30.435 9.51721 30.435 9.30221 30.315 9.23055C30.1358 9.49213 29.8725 9.71967 29.7417 10.0422C29.5141 10.5582 29.4908 11.1924 29.4048 11.8518C29.3565 11.8643 29.3797 11.8518 29.3565 11.8768C28.973 11.7837 28.8422 11.3859 28.6989 11.0527C28.3406 10.2016 28.2815 8.83459 28.5914 7.85454C28.6756 7.60371 29.034 6.81179 28.8906 6.57171C28.8154 6.34417 28.5789 6.21338 28.4481 6.02884C28.2801 5.78851 28.136 5.53227 28.0181 5.26379C27.7314 4.59371 27.5881 3.85196 27.2763 3.18188C27.133 2.87192 26.8822 2.54763 26.6779 2.26275C26.4504 1.94025 26.1995 1.71271 26.0186 1.33109C25.9595 1.20029 25.8752 0.983503 25.9702 0.84017C25.9953 0.74342 26.0455 0.705795 26.1386 0.67892C26.2963 0.54992 26.7388 0.718336 26.8947 0.790003C27.3372 0.969169 27.7099 1.13759 28.0808 1.38842C28.2492 1.50667 28.4302 1.73421 28.6452 1.79334H28.896C29.2794 1.87754 29.7112 1.81842 30.0695 1.92413C30.7056 2.12838 31.2789 2.42579 31.7931 2.74829C33.3777 3.76024 34.6665 5.17326 35.5287 6.84404C35.6721 7.11996 35.7348 7.37259 35.8656 7.65925C36.1164 8.2505 36.4264 8.84713 36.6808 9.41867C36.9316 9.98304 37.1735 10.5582 37.5336 11.0258C37.7128 11.2766 38.433 11.4074 38.7555 11.5382C38.9938 11.6457 39.3647 11.7443 39.5797 11.875C39.9918 12.1259 40.3931 12.4125 40.7801 12.6885C40.9772 12.8246 41.5738 13.1238 41.6097 13.3657Z" fill=""/>
</svg>
