<svg width="19" height="19" viewBox="0 0 19 19" fill="currentColor" xmlns="http://www.w3.org/2000/svg">
<path fill-rule="evenodd" clip-rule="evenodd" d="M6.53642 12.9577H5.19442V5.64268C5.67842 5.55468 6.34942 5.48868 7.26242 5.48868C8.25242 5.48868 8.97842 5.69768 9.45242 6.09368C9.89242 6.45668 10.1774 7.03968 10.1774 7.73268C10.1774 8.43668 9.95742 9.01968 9.53942 9.41568C9.00042 9.95468 8.15342 10.2077 7.19642 10.2077C6.94342 10.2077 6.71242 10.1967 6.53642 10.1637V12.9577ZM7.31742 6.52268C6.94342 6.52268 6.67942 6.55568 6.53742 6.58868V9.09668C6.70142 9.14068 6.92142 9.15168 7.19742 9.15168C8.20842 9.15168 8.82442 8.65668 8.82442 7.78768C8.82442 6.96268 8.25242 6.52268 7.31742 6.52268Z" fill=""/>
<path d="M11.9064 13.0787C11.2564 13.0787 10.6744 12.9137 10.2784 12.6937L10.5424 11.7147C10.8504 11.9017 11.4324 12.0997 11.9174 12.0997C12.5114 12.0997 12.7754 11.8577 12.7754 11.5057C12.7754 11.1427 12.5554 10.9557 11.8954 10.7247C10.8504 10.3617 10.4104 9.78968 10.4214 9.16268C10.4214 8.21668 11.2014 7.47968 12.4454 7.47968C13.0394 7.47968 13.5554 7.63368 13.8644 7.79868L13.6004 8.75568C13.2541 8.56079 12.8648 8.45496 12.4674 8.44768C11.9834 8.44768 11.7194 8.67868 11.7194 9.00868C11.7194 9.34968 11.9724 9.51468 12.6544 9.75668C13.6224 10.1087 14.0734 10.6037 14.0844 11.3957C14.0844 12.3637 13.3244 13.0787 11.9064 13.0787Z" fill=""/>
<path fill-rule="evenodd" clip-rule="evenodd" d="M14.6994 0.290682C11.2048 -0.096894 7.67804 -0.096894 4.18342 0.290682C2.17142 0.515682 0.546419 2.10068 0.310419 4.12268C-0.103473 7.66731 -0.103473 11.2481 0.310419 14.7927C0.546419 16.8147 2.17042 18.3997 4.18342 18.6247C7.67808 19.0114 11.2048 19.0114 14.6994 18.6247C16.7114 18.3997 18.3364 16.8147 18.5724 14.7927C18.9863 11.2481 18.9863 7.66731 18.5724 4.12268C18.3364 2.10068 16.7124 0.515682 14.6994 0.290682ZM4.34942 1.78068C7.73371 1.40539 11.1491 1.40539 14.5334 1.78068C15.8634 1.93068 16.9284 2.97968 17.0834 4.29768C17.4846 7.72599 17.4846 11.1894 17.0834 14.6177C17.0032 15.2627 16.708 15.8619 16.2453 16.3184C15.7826 16.775 15.1795 17.0622 14.5334 17.1337C11.1491 17.509 7.73371 17.509 4.34942 17.1337C3.70336 17.0622 3.10027 16.775 2.63757 16.3184C2.17488 15.8619 1.87959 15.2627 1.79942 14.6177C1.39828 11.1894 1.39828 7.72599 1.79942 4.29768C1.87959 3.65264 2.17488 3.05346 2.63757 2.59693C3.10027 2.14041 3.70336 1.85219 4.34942 1.78068Z" fill=""/>
</svg>
