<svg width="41" height="22" viewBox="0 0 41 22" fill="currentColor" xmlns="http://www.w3.org/2000/svg">
<path d="M20.4167 1.11883C31.3498 1.11883 39.7145 5.66358 39.7145 10.8004C39.7145 15.9373 31.3498 20.5473 20.4167 20.5473C9.48354 20.5473 1.11883 15.9373 1.11883 10.8004C1.11883 5.66358 9.48354 1.11883 20.4167 1.11883ZM20.4167 0C9.0895 0 0 4.80812 0 10.7351C0 16.662 9.0895 21.4048 20.4167 21.4048C31.7438 21.4048 40.8333 16.662 40.8333 10.7351C40.8333 4.80812 31.7438 0 20.4167 0ZM13.8956 9.94292C13.4362 12.5134 11.5905 12.25 9.41821 12.25L10.341 7.70525C12.7768 7.70525 14.357 7.43983 13.8956 9.94292ZM6.19033 16.7968H8.56275L9.0895 13.8976C11.6579 13.8976 13.3688 14.0957 14.8184 12.7135C16.466 11.1312 16.9254 8.43208 15.7413 7.11521C15.0818 6.39042 14.159 5.99433 12.7768 5.99433H8.232L6.19033 16.7968ZM18.1116 3.16254H20.4167L19.8899 6.06171C21.8663 6.06171 23.7752 5.99433 24.698 6.78446C25.6188 7.70729 25.1595 8.76079 24.2366 14.0303H21.7989C22.7217 9.02417 22.9198 8.56275 22.6564 8.16871C22.393 7.77467 21.3395 7.77262 19.4938 7.77262L18.3097 14.0303H16.0026L18.1116 3.16254ZM32.2052 9.947C31.7438 12.5154 29.9002 12.252 27.7279 12.252L28.6487 7.70729C31.0864 7.70729 32.6667 7.44392 32.2052 9.947ZM24.5 16.7948H26.805L27.3318 14.0283C30.0983 14.0283 31.6132 14.2263 33.0628 12.8441C34.7083 11.2618 35.1698 8.56071 33.9835 7.24383C33.3261 6.51904 32.4033 6.125 31.0211 6.125H26.4763L24.5 16.7948Z" fill=""/>
</svg>
