<svg width="18" height="20" viewBox="0 0 18 20" fill="currentColor" xmlns="http://www.w3.org/2000/svg">
<path d="M7.99893 8.438C7.69304 8.61463 7.4464 8.87799 7.29018 9.19478C7.13396 9.51158 7.07519 9.86758 7.12129 10.2178C7.16739 10.568 7.3163 10.8966 7.54918 11.1622C7.78206 11.4278 8.08845 11.6183 8.42963 11.7098C8.7708 11.8012 9.13143 11.7895 9.46592 11.676C9.8004 11.5625 10.0937 11.3523 10.3088 11.0721C10.5239 10.7919 10.651 10.4543 10.6742 10.1018C10.6973 9.74934 10.6155 9.39793 10.4389 9.092C10.3217 8.88882 10.1656 8.71073 9.97947 8.5679C9.79338 8.42507 9.58098 8.3203 9.3544 8.25956C9.12782 8.19883 8.89149 8.18333 8.65891 8.21395C8.42634 8.24456 8.20207 8.3207 7.99893 8.438ZM16.0039 10.376C15.8866 10.242 15.7629 10.1077 15.6329 9.973C15.7236 9.877 15.8116 9.78133 15.8969 9.686C17.5019 7.882 18.1799 6.072 17.5519 4.985C16.9499 3.942 15.1589 3.631 12.9159 4.067C12.6953 4.11033 12.4756 4.159 12.2569 4.213C12.2149 4.069 12.1706 3.92567 12.1239 3.783C11.3629 1.49 10.1339 -0.000999497 8.87793 5.02707e-07C7.67393 5.02707e-07 6.50993 1.397 5.76693 3.558C5.69359 3.77133 5.62593 3.986 5.56393 4.202C5.41793 4.166 5.27126 4.13267 5.12393 4.102C2.75793 3.617 0.852925 3.937 0.225925 5.026C-0.375075 6.069 0.252925 7.776 1.75393 9.498C1.90326 9.668 2.05659 9.83467 2.21393 9.998C2.02793 10.1887 1.85293 10.379 1.68893 10.569C0.223926 12.267 -0.368075 13.945 0.231925 14.984C0.851925 16.058 2.72993 16.409 5.01693 15.959C5.20226 15.9223 5.38659 15.881 5.56993 15.835C5.63659 16.069 5.71026 16.3013 5.79093 16.532C6.53093 18.649 7.68793 20 8.88793 20C10.1279 20 11.3699 18.547 12.1229 16.341C12.1823 16.1663 12.2386 15.986 12.2919 15.8C12.5286 15.8587 12.7669 15.9107 13.0069 15.956C15.2099 16.373 16.9589 16.046 17.5579 15.006C18.1769 13.931 17.5379 12.129 16.0039 10.376ZM0.965926 5.452C1.35193 4.782 2.90893 4.52 4.95193 4.94C5.08259 4.96667 5.21559 4.99667 5.35093 5.03C5.15132 5.91238 5.01035 6.807 4.92893 7.708C4.19237 8.22632 3.48992 8.79149 2.82593 9.4C2.67993 9.24867 2.53759 9.09367 2.39893 8.935C1.11193 7.461 0.603926 6.081 0.965926 5.452ZM4.85293 11.18C4.34293 10.793 3.86793 10.397 3.43693 9.999C3.86693 9.603 4.34193 9.209 4.85193 8.823C4.83326 9.21567 4.82426 9.60867 4.82493 10.002C4.82493 10.3953 4.83426 10.788 4.85293 11.18ZM4.85293 15.12C3.98625 15.3139 3.09119 15.3458 2.21293 15.214C1.97219 15.1949 1.73791 15.1268 1.52449 15.0138C1.31107 14.9008 1.12302 14.7454 0.971926 14.557C0.606926 13.927 1.08293 12.579 2.33593 11.127C2.49326 10.945 2.65593 10.7677 2.82393 10.595C3.48803 11.2075 4.1919 11.7754 4.93093 12.295C5.01362 13.2073 5.15593 14.1133 5.35693 15.007C5.19026 15.049 5.02193 15.087 4.85193 15.121M11.9519 7.082C11.6166 6.87067 11.2773 6.66633 10.9339 6.469C10.5953 6.27433 10.2529 6.08667 9.90693 5.906C10.4759 5.6662 11.0563 5.45428 11.6459 5.271C11.7787 5.86907 11.8808 6.47352 11.9519 7.082ZM6.57593 3.835C7.21193 1.985 8.15393 0.855 8.87993 0.855C9.65293 0.854 10.6569 2.073 11.3139 4.052C11.3566 4.18133 11.3966 4.31133 11.4339 4.442C10.5715 4.70935 9.72764 5.03339 8.90793 5.412C8.09102 5.02852 7.2491 4.70077 6.38793 4.431C6.44593 4.231 6.50859 4.03233 6.57593 3.835ZM6.17593 5.259C6.76319 5.44328 7.34061 5.65756 7.90593 5.901C7.20459 6.26233 6.52193 6.656 5.85793 7.082C5.93793 6.444 6.04493 5.833 6.17593 5.259ZM5.85893 12.919C6.19026 13.1317 6.52659 13.336 6.86793 13.532C7.21593 13.732 7.56826 13.924 7.92493 14.108C7.35548 14.3597 6.77337 14.5816 6.18093 14.773C6.04307 14.161 5.9356 13.5426 5.85893 12.92M11.3149 16.066C11.0496 16.9133 10.6299 17.7043 10.0769 18.399C9.94039 18.5981 9.76456 18.7672 9.56026 18.8958C9.35595 19.0245 9.12749 19.1099 8.88893 19.147C8.15993 19.147 7.23093 18.062 6.59893 16.251C6.52426 16.037 6.45559 15.821 6.39293 15.603C7.25823 15.3242 8.10353 14.9868 8.92293 14.593C9.7498 14.9742 10.6006 15.3012 11.4699 15.572C11.4219 15.738 11.3703 15.9027 11.3149 16.066ZM11.6769 14.742C11.0793 14.5558 10.4913 14.3402 9.91493 14.096C10.2543 13.918 10.5959 13.7297 10.9399 13.531C11.2933 13.327 11.6373 13.118 11.9719 12.904C11.9054 13.5213 11.8069 14.1348 11.6769 14.742ZM12.1239 9.999C12.1239 10.6063 12.1049 11.213 12.0669 11.819C11.5729 12.1537 11.0549 12.4777 10.5129 12.791C9.97293 13.1023 9.44059 13.3877 8.91593 13.647C8.36459 13.383 7.82393 13.0983 7.29393 12.793C6.76726 12.4897 6.25259 12.1667 5.74993 11.824C5.70326 11.2173 5.67993 10.61 5.67993 10.002C5.67993 9.39467 5.70259 8.78767 5.74793 8.181C6.75284 7.49413 7.80855 6.8847 8.90593 6.358C9.44993 6.62267 9.98426 6.90633 10.5089 7.209C11.0356 7.51167 11.5523 7.83133 12.0589 8.168C12.1023 8.77733 12.1239 9.38767 12.1239 9.999ZM13.0799 4.906C15.0019 4.533 16.4499 4.784 16.8129 5.413C17.1999 6.083 16.6459 7.561 15.2589 9.119C15.1823 9.205 15.1029 9.29133 15.0209 9.378C14.3455 8.76718 13.6292 8.2032 12.8769 7.69C12.8013 6.79894 12.666 5.91395 12.4719 5.041C12.6786 4.99033 12.8813 4.94533 13.0799 4.906ZM12.9499 8.791C13.4577 9.16121 13.9457 9.55775 14.4119 9.979C13.9478 10.4069 13.4614 10.8102 12.9549 11.187C12.9703 10.791 12.9779 10.395 12.9779 9.999C12.9779 9.59633 12.9686 9.19367 12.9499 8.791ZM16.8189 14.58C16.4549 15.211 15.0509 15.474 13.1659 15.118C12.9499 15.0773 12.7286 15.0287 12.5019 14.972C12.6914 14.0878 12.8207 13.1917 12.8889 12.29C13.6396 11.7679 14.3536 11.1948 15.0259 10.575C15.1439 10.697 15.2559 10.8183 15.3619 10.939C15.9636 11.5921 16.4393 12.3509 16.7649 13.177C16.8691 13.3948 16.9277 13.6316 16.937 13.8729C16.9463 14.1142 16.9061 14.3548 16.8189 14.58Z" fill=""/>
</svg>
