<svg width="35" height="35" viewBox="0 0 35 35" fill="none" xmlns="http://www.w3.org/2000/svg">
<path d="M17.3531 0C7.7625 0 0 7.7625 0 17.3531C0 26.9437 7.7625 34.7062 17.3531 34.7062C26.9437 34.7062 34.7062 26.9437 34.7062 17.3531C34.7062 7.7625 26.9437 0 17.3531 0ZM26.7187 10.0406C25.9031 10.0687 25.3687 9.59062 25.3406 8.85937C25.3406 8.57812 25.3969 8.35312 25.5937 8.07187C25.7625 7.73437 25.8187 7.67812 25.8187 7.5375C25.7906 7.0875 25.1156 7.05937 24.9187 7.05937C22.3031 7.14375 21.6281 10.6594 21.0656 13.5281L20.7844 15.0469C22.275 15.2719 23.3437 14.9906 23.9344 14.625C24.7781 14.0906 23.7094 13.5281 23.8219 12.9094C23.9625 12.2906 24.525 11.9812 24.975 11.9531C25.6219 11.925 26.0719 12.6 26.0437 13.275C26.0156 14.3719 24.5531 15.9187 21.6 15.8344C21.2344 15.8344 20.925 15.8062 20.6156 15.7781L20.0531 18.8437C19.5469 21.15 18.9 24.3281 16.5375 27.0844C14.5125 29.5031 12.4594 29.8687 11.5312 29.8969C9.81562 29.9531 8.6625 29.025 8.63437 27.8156C8.60625 26.6344 9.64687 25.9875 10.3219 25.9594C11.25 25.9312 11.8687 26.6062 11.8969 27.3656C11.925 28.0125 11.5875 28.2094 11.3625 28.35C11.2219 28.4625 10.9969 28.6031 10.9969 28.8562C10.9969 28.9687 11.1375 29.2219 11.5031 29.2219C12.2344 29.1937 12.7125 28.8281 13.05 28.6031C14.7375 27.1969 15.3844 24.75 16.2281 20.3344L16.3969 19.2656C16.6781 17.8312 17.0156 16.2 17.4937 14.5969C16.3125 13.6969 15.6094 12.6 14.0062 12.1781C12.9094 11.8687 12.2625 12.1219 11.7844 12.7125C11.2219 13.4156 11.4187 14.3156 11.9531 14.85L12.825 15.8344C13.9219 17.1 14.5125 18.0562 14.2875 19.3781C13.9781 21.4312 11.475 23.0344 8.52187 22.1344C5.99062 21.3469 5.54062 19.575 5.85 18.5906C6.10312 17.7187 6.80625 17.55 7.48125 17.775C8.2125 18 8.49375 18.8719 8.26875 19.5469C8.24062 19.6312 8.2125 19.7437 8.12812 19.8844C8.04375 20.0812 7.90312 20.2219 7.81875 20.4469C7.65 20.9812 8.38125 21.3469 8.8875 21.5156C10.0125 21.8531 11.1094 21.2625 11.3906 20.3625C11.6437 19.5187 11.1094 18.9281 10.9125 18.7031L9.84375 17.55C9.36562 17.0156 8.26875 15.4969 8.80312 13.7812C9 13.1344 9.42187 12.4312 10.0406 11.9812C11.3344 10.9969 12.7687 10.8562 14.1187 11.25C15.8625 11.7562 16.7062 12.9094 17.8031 13.8094C18.4219 12.0375 19.2656 10.2656 20.5312 8.80312C21.6844 7.45312 23.2031 6.49687 24.975 6.4125C26.7469 6.35625 28.0687 7.14375 28.125 8.40937C28.0969 8.97187 27.7875 10.0125 26.7187 10.0406Z" fill="#1A171B"/>
</svg>
