<svg width="28" height="35" viewBox="0 0 28 35" fill="currentColor" xmlns="http://www.w3.org/2000/svg">
<path d="M1.33525 0.000144631C1.29151 0.0017561 1.24868 0.013103 1.20988 0.033359C1.17108 0.0536149 1.13728 0.08227 1.11095 0.117237C1.08463 0.152204 1.06643 0.192603 1.05769 0.235492C1.04895 0.27838 1.04988 0.322679 1.06042 0.36516L7.41986 26.1052C7.43232 26.1552 7.45771 26.2011 7.4935 26.2383C7.52929 26.2754 7.57422 26.3025 7.62378 26.3169C7.67334 26.3312 7.7258 26.3322 7.77589 26.3199C7.82598 26.3075 7.87195 26.2822 7.90919 26.2465L27.0384 7.84372C27.0756 7.80791 27.1027 7.76294 27.1171 7.71332C27.1314 7.66371 27.1324 7.61119 27.1201 7.56106C27.1077 7.51092 27.0823 7.46492 27.0465 7.42768C27.0108 7.39044 26.9658 7.36327 26.9162 7.3489L1.42726 0.0114181C1.39735 0.00298891 1.36632 -0.000812951 1.33525 0.000144631ZM1.75389 0.717684L26.263 7.77333L7.86897 25.4687L1.75389 0.717684Z" fill=""/>
<path d="M14.0821 3.66899C14.0077 3.67034 13.9365 3.69972 13.8828 3.75125L4.32262 12.9543C4.2854 12.9902 4.25827 13.0352 4.24396 13.0848C4.22964 13.1344 4.22863 13.187 4.24104 13.2371C4.25346 13.2872 4.27885 13.3332 4.31467 13.3705C4.35049 13.4077 4.39547 13.4348 4.4451 13.4492L17.182 17.12C17.2316 17.1343 17.2841 17.1353 17.3342 17.1229C17.3843 17.1104 17.4303 17.085 17.4675 17.0492C17.5047 17.0134 17.5318 16.9684 17.5461 16.9188C17.5605 16.8692 17.5615 16.8167 17.5491 16.7666L14.3724 3.89263C14.3564 3.82796 14.319 3.77062 14.2662 3.73C14.2134 3.68938 14.1487 3.66787 14.0821 3.66899ZM13.9236 4.52882L16.8556 16.4138L5.09805 13.0247L13.9236 4.52882Z" fill=""/>
<path d="M9.33645 8.22354C9.29283 8.22526 9.25013 8.23666 9.21146 8.25692C9.17279 8.27718 9.13911 8.30579 9.11286 8.34067C9.08661 8.37555 9.06845 8.41584 9.05969 8.45861C9.05094 8.50137 9.0518 8.54556 9.06223 8.58795L10.6393 14.9827C10.6517 15.0329 10.677 15.079 10.7128 15.1163C10.7487 15.1536 10.7937 15.1808 10.8433 15.1951C10.893 15.2095 10.9456 15.2105 10.9958 15.1981C11.046 15.1857 11.092 15.1603 11.1292 15.1244L15.8784 10.5477C15.9156 10.5119 15.9427 10.4668 15.957 10.4172C15.9713 10.3675 15.9723 10.315 15.9599 10.2648C15.9474 10.2147 15.922 10.1687 15.8861 10.1315C15.8503 10.0943 15.8053 10.0672 15.7556 10.0529L9.42877 8.23482C9.39876 8.22636 9.36762 8.22255 9.33645 8.22354ZM9.75509 8.94078L15.103 10.4773L11.0884 14.3462L9.75509 8.94078Z" fill=""/>
<path d="M7.76354 1.83569C7.68902 1.83697 7.61774 1.86636 7.56397 1.91796L2.81481 6.49711C2.77759 6.53293 2.75046 6.57793 2.73614 6.62756C2.72182 6.67719 2.72082 6.72972 2.73323 6.77987C2.74565 6.83001 2.77104 6.876 2.80686 6.91323C2.84267 6.95045 2.88766 6.97759 2.93729 6.99192L9.26443 8.80999C9.31405 8.82427 9.36656 8.82525 9.41668 8.81282C9.4668 8.80039 9.51276 8.775 9.54997 8.73919C9.58717 8.70338 9.61429 8.65841 9.62862 8.6088C9.64294 8.55919 9.64396 8.50668 9.63158 8.45655L8.05421 2.05994C8.03828 1.99522 8.00085 1.93781 7.94804 1.89713C7.89524 1.85645 7.83019 1.83459 7.76354 1.83569ZM7.60449 2.69644L8.93811 8.10373L3.58963 6.56688L7.60449 2.69644ZM20.419 5.4825C20.3447 5.48393 20.2737 5.5133 20.2201 5.56476L15.47 10.1418C15.4329 10.1777 15.406 10.2227 15.3918 10.2723C15.3776 10.3219 15.3768 10.3744 15.3893 10.4244C15.4018 10.4745 15.4272 10.5204 15.463 10.5575C15.4989 10.5947 15.5438 10.6217 15.5934 10.636L21.9199 12.4541C21.9696 12.4683 22.0221 12.4693 22.0722 12.4569C22.1223 12.4445 22.1683 12.4191 22.2055 12.3833C22.2427 12.3474 22.2698 12.3025 22.2841 12.2529C22.2984 12.2033 22.2995 12.1507 22.2871 12.1006L20.7097 5.70614C20.6937 5.64147 20.6563 5.58413 20.6035 5.54351C20.5507 5.50289 20.4856 5.48138 20.419 5.4825ZM20.2606 6.34294L21.5942 11.7481L16.246 10.2112L20.2606 6.34294ZM10.9201 14.625C10.8458 14.6264 10.7748 14.6558 10.7211 14.7072L5.97106 19.2836C5.93386 19.3195 5.90676 19.3646 5.8925 19.4143C5.87824 19.4639 5.87731 19.5165 5.88982 19.5667C5.90233 19.6168 5.92783 19.6628 5.96376 19.7C5.99968 19.7372 6.04476 19.7642 6.09446 19.7784L12.4234 21.5965C12.473 21.6107 12.5255 21.6116 12.5756 21.5992C12.6256 21.5867 12.6716 21.5613 12.7087 21.5255C12.7459 21.4897 12.773 21.4448 12.7873 21.3952C12.8016 21.3456 12.8026 21.2932 12.7903 21.2431L11.2108 14.8486C11.1948 14.7839 11.1573 14.7266 11.1045 14.686C11.0517 14.6453 10.9867 14.6238 10.9201 14.625ZM10.7617 15.4851L12.0968 20.8902L6.7471 19.354L10.7617 15.4851Z" fill=""/>
<path d="M2.21599 32.8622C2.07827 33.1794 1.81807 33.3174 1.57066 33.3174C1.25775 33.3174 0.964641 33.0898 0.964641 32.6325V31.0115H2.27967V30.5938H0.964641V29.454L0.500906 29.4211V30.5938H0V31.0115H0.500906V32.6325C0.500906 33.3567 1.02802 33.7744 1.57737 33.7744C1.97955 33.7744 2.39759 33.5581 2.63159 33.0505L2.21599 32.8622ZM6.1038 33.3305V32.0792C6.1038 31.3046 5.77992 30.5085 4.97707 30.5085C4.59195 30.5085 4.18945 30.6855 4.03863 30.9591V29.454L3.57673 29.4211V33.6891H4.03833V31.4533C4.17635 31.18 4.37105 30.9719 4.74947 30.9719C5.29638 30.9719 5.6093 31.414 5.6093 31.9609V33.6891H6.13641C6.1035 33.5776 6.1038 33.4484 6.1038 33.3305ZM9.67383 31.1011L9.96024 30.6526C9.61045 30.5149 9.49223 30.5085 9.37432 30.5085C9.13362 30.5085 8.64581 30.5478 8.42918 30.9591C8.42918 30.8869 8.47488 30.6526 8.51449 30.5935H7.37466V30.9393L8.00688 30.9722V33.3107H7.04864V33.6891H9.40692C9.37432 33.5776 9.37432 33.4484 9.37432 33.3305V33.3107H8.45538V31.5322C8.5605 31.0685 9.14641 30.8147 9.67383 31.1011ZM12.019 30.5085C11.133 30.5085 10.6692 31.088 10.6452 32.0856V32.3659C10.6452 33.1861 11.2314 33.7744 12.0452 33.7744C12.2673 33.7739 12.4868 33.7271 12.6898 33.6371C12.8928 33.5471 13.0749 33.4158 13.2244 33.2516L12.951 32.9128C12.5988 33.2516 12.3057 33.3503 12.0321 33.3503C11.4852 33.3503 11.1004 32.9454 11.1004 32.3656L13.31 32.3525L13.3164 32.0856C13.356 31.0816 12.8986 30.5085 12.019 30.5085ZM12.8286 31.9478H11.1071C11.133 31.311 11.3737 30.9131 11.973 30.9131C12.5723 30.9131 12.859 31.2848 12.8286 31.9478ZM15.6024 30.5085C14.7164 30.5085 14.2527 31.088 14.2265 32.0856V32.3659C14.2265 33.1861 14.8127 33.7744 15.6286 33.7744C15.8507 33.7735 16.0701 33.7266 16.273 33.6366C16.476 33.5466 16.6581 33.4155 16.8078 33.2516L16.5345 32.9128C16.1823 33.2516 15.8891 33.3503 15.6155 33.3503C15.0686 33.3503 14.6838 32.9454 14.6838 32.3656L16.8934 32.3525L16.8998 32.0856C16.9394 31.0816 16.4821 30.5085 15.6024 30.5085ZM16.4099 31.9478H14.6902C14.7164 31.311 14.9571 30.9131 15.5564 30.9131C16.1557 30.9131 16.4428 31.2848 16.4099 31.9478ZM18.8205 33.4289C18.8205 33.6498 18.9455 33.7744 19.1664 33.7744C19.3806 33.7744 19.5055 33.6498 19.5055 33.4289C19.5055 33.2126 19.3806 33.0898 19.1664 33.0898C18.9522 33.0898 18.8205 33.2123 18.8205 33.4289ZM23.2964 30.0469C23.5109 30.0469 23.6358 29.9287 23.6358 29.7011C23.6358 29.4847 23.5109 29.3687 23.2967 29.3687C23.0825 29.3687 22.9576 29.4844 22.9576 29.7011C22.9576 29.9287 23.0752 30.0469 23.2964 30.0469ZM22.4698 30.5938V30.9393L23.1084 30.9722V33.6891C23.1084 34.1507 22.8153 34.3741 22.5024 34.3741C22.2465 34.3741 21.9863 34.236 21.8504 33.9231L21.439 34.105C21.6733 34.6212 22.0911 34.829 22.496 34.829C23.0429 34.829 23.57 34.4176 23.57 33.6894L23.5767 30.5938H22.4698ZM26.5148 31.9174C25.9219 31.8055 25.6483 31.6614 25.6483 31.414C25.6483 31.134 25.9874 30.9326 26.4621 30.9326C26.8012 30.9326 27.0288 31.0356 27.2826 31.3046L27.5757 31.0115C27.3481 30.6855 26.9325 30.5085 26.4097 30.5085C25.6943 30.5085 25.2108 30.8738 25.2108 31.4271C25.2108 31.9107 25.5825 32.1907 26.4752 32.3723C27.0157 32.4774 27.1796 32.5734 27.1796 32.7836C27.1796 33.0898 26.8079 33.3567 26.3835 33.3567C26.0203 33.3567 25.6943 33.1556 25.3945 32.8034L25.0819 33.1227C25.4012 33.545 25.8235 33.7747 26.3768 33.7747C27.1272 33.7747 27.615 33.3567 27.615 32.7769C27.615 32.3068 27.2957 32.0661 26.5148 31.9174Z" fill=""/>
</svg>
