<svg width="19" height="20" viewBox="0 0 19 20" fill="currentColor" xmlns="http://www.w3.org/2000/svg">
<path d="M18.401 3.1L14.331 3.84L14.981 1.59C15.091 1.21 15.021 0.81 14.781 0.5C14.551 0.19 14.181 0 13.791 0H13.691L13.551 0.02L6.95098 1.31C6.39098 1.42 5.98098 1.89 5.95098 2.46L5.86098 4.04L0.570984 3.09C0.480137 3.07478 0.386839 3.08547 0.301791 3.12085C0.216744 3.15623 0.143391 3.21487 0.0901482 3.29003C0.036905 3.3652 0.00592749 3.45385 0.000769092 3.54582C-0.0043893 3.63779 0.0164802 3.72935 0.0609839 3.81L9.15098 19.75C9.34098 20.08 9.81098 20.08 9.99098 19.75L18.901 3.81C19.101 3.45 18.791 3.02 18.391 3.1H18.401ZM7.15098 2.3L13.751 1.01H13.801C13.961 1.01 14.081 1.16 14.031 1.32L12.801 5.6C12.801 5.6 12.791 5.68 12.801 5.72C12.801 5.73 12.811 5.74 12.821 5.75C12.821 5.77 12.841 5.8 12.861 5.82C12.861 5.83 12.881 5.84 12.891 5.85C12.911 5.86 12.931 5.88 12.951 5.89C12.961 5.89 12.981 5.89 13.001 5.9C13.021 5.9 13.031 5.91 13.051 5.91H13.101L14.991 5.55H15.091C15.111 5.55 15.121 5.55 15.141 5.56C15.161 5.57 15.181 5.59 15.201 5.61L15.231 5.64C15.251 5.66 15.251 5.69 15.261 5.72C15.261 5.73 15.271 5.75 15.271 5.76C15.271 5.8 15.271 5.85 15.251 5.89L9.87098 16.62L9.77098 16.77C9.74098 16.82 9.69098 16.85 9.65098 16.86H9.47098C9.42907 16.8412 9.3941 16.8097 9.37098 16.77C9.37098 16.77 9.36098 16.75 9.35098 16.74C9.33098 16.7 9.31098 16.65 9.33098 16.59L10.201 12.39V12.27C10.201 12.26 10.191 12.25 10.181 12.24C10.1714 12.2177 10.1578 12.1974 10.141 12.18C10.141 12.17 10.121 12.16 10.111 12.15C10.091 12.14 10.071 12.12 10.051 12.12C10.041 12.12 10.021 12.12 10.011 12.11H9.98098C9.96098 12.11 9.93098 12.11 9.91098 12.12L8.78098 12.46H8.64098C8.62098 12.46 8.60098 12.44 8.58098 12.43C8.57098 12.43 8.56098 12.41 8.55098 12.4C8.53098 12.38 8.52098 12.36 8.51098 12.34C8.51098 12.33 8.50098 12.32 8.49098 12.31C8.48098 12.27 8.47098 12.23 8.49098 12.19L9.04098 9.52C9.05098 9.45 9.04098 9.38 8.99098 9.33C8.99098 9.33 8.99098 9.32 8.98098 9.31C8.94098 9.26 8.88098 9.24 8.82098 9.23H8.74098L6.90098 9.65H6.83098C6.70098 9.65 6.59098 9.53 6.60098 9.39L7.01098 2.54C7.01098 2.43 7.10098 2.34 7.21098 2.32L7.15098 2.3Z" fill=""/>
</svg>
