<svg width="33" height="33" viewBox="0 0 33 33" fill="currentColor" xmlns="http://www.w3.org/2000/svg">
<path d="M2.3075 16.25C2.3075 14.235 2.74625 12.3175 3.51 10.5625L10.1725 28.795C7.81333 27.6566 5.82354 25.8753 4.43214 23.6559C3.04073 21.4366 2.30426 18.8694 2.3075 16.25ZM25.6588 15.5512C25.6588 16.7375 25.1875 18.1187 24.6025 20.0525L23.205 24.7L18.1675 9.75L19.76 9.5875C20.5238 9.49 20.4262 8.385 19.6787 8.43375C19.6787 8.43375 17.42 8.6125 15.9575 8.6125L12.285 8.43375C11.5375 8.385 11.4563 9.53875 12.1875 9.5875L13.6663 9.75L15.8438 15.665L12.7887 24.8138L7.7025 9.75L9.31125 9.5875C10.0588 9.49 9.96125 8.385 9.21375 8.43375C9.21375 8.43375 6.955 8.6125 5.4925 8.6125L4.59875 8.59625C7.10125 4.81 11.375 2.3075 16.25 2.3075C19.8738 2.3075 23.1888 3.705 25.6588 5.96375H25.48C24.115 5.96375 23.14 7.15 23.14 8.43375C23.14 9.5875 23.8062 10.5625 24.505 11.7C25.0413 12.6262 25.6588 13.8125 25.6588 15.5512ZM16.4937 17.4688L20.7838 29.2012L20.8813 29.3962C19.435 29.9163 17.875 30.1925 16.25 30.1925C14.885 30.1925 13.5687 29.9975 12.3175 29.6237L16.4937 17.4688ZM28.4863 9.555C29.6097 11.6074 30.1965 13.9103 30.1925 16.25C30.1925 21.385 27.3975 25.8862 23.2537 28.2913L27.5112 15.99C28.3075 14.0075 28.5837 12.415 28.5837 11.0013L28.4863 9.555ZM16.25 0C18.384 0 20.4971 0.420319 22.4686 1.23696C24.4401 2.0536 26.2315 3.25056 27.7405 4.75951C29.2494 6.26847 30.4464 8.05985 31.263 10.0314C32.0797 12.0029 32.5 14.116 32.5 16.25C32.5 20.5598 30.788 24.693 27.7405 27.7405C24.693 30.788 20.5598 32.5 16.25 32.5C14.116 32.5 12.0029 32.0797 10.0314 31.263C8.05985 30.4464 6.26847 29.2494 4.75951 27.7405C1.71205 24.693 0 20.5598 0 16.25C0 11.9402 1.71205 7.80698 4.75951 4.75951C7.80698 1.71205 11.9402 0 16.25 0ZM16.25 31.7525C24.7975 31.7525 31.7525 24.7975 31.7525 16.25C31.7525 7.7025 24.7975 0.7475 16.25 0.7475C7.7025 0.7475 0.7475 7.7025 0.7475 16.25C0.7475 24.7975 7.7025 31.7525 16.25 31.7525Z" fill=""/>
</svg>
